<svg width="394" height="231" viewBox="0 0 394 231" fill="none" xmlns="http://www.w3.org/2000/svg">
<path d="M375.545 30.371C377.652 28.9505 380.05 28.2097 382.435 27.4472C385.292 26.5322 388.222 25.7958 390.804 24.1792C392.081 23.3775 393.185 22.4058 394 20.9243C392.448 20.7326 391.166 21.0681 389.918 21.5735C388.144 22.2925 386.587 23.408 384.93 24.3448C383.826 24.9635 382.693 25.469 381.371 25.3513C380.281 25.2555 379.797 24.933 380.403 23.7566C381.271 22.0703 382.523 20.7195 383.905 19.4733C386.033 17.5517 388.475 16.0354 390.76 14.323C391.118 14.0528 391.671 13.9264 391.728 13.1116C390.525 13.7826 389.517 14.5016 388.309 14.8066C387.607 14.9809 387.389 14.8415 387.332 14.0528C387.189 12.1051 387.629 10.4057 388.907 8.90244C389.914 7.71725 390.843 6.4667 391.789 5.22922C392.43 4.39261 392.988 3.50372 393.263 2.46232C393.494 1.58214 393.193 0.893683 392.6 0.2793C392.326 -0.00392565 392.068 -0.178219 391.78 0.292372C390.097 3.06799 387.738 5.51245 386.918 8.71072C386.417 10.6628 385.544 12.3273 384.507 13.97C384.258 14.3665 384.136 15.0245 383.482 14.8763C382.653 14.689 383.063 13.97 383.05 13.4907C383.007 11.8436 383.033 10.1922 383.033 8.54514C382.44 9.61269 382.2 10.6802 381.956 11.7521C381.232 14.9243 380.569 18.1182 379.213 21.0986C378.737 22.1487 378.249 23.2511 376.958 23.835C376.683 21.5125 377.006 19.3774 377.076 17.2336C377.146 15.1465 377.464 12.9809 376.021 10.9678C375.227 12.2358 374.917 13.5038 374.739 14.7718C374.281 18.0485 373.967 21.347 373.491 24.6237C373.112 27.2163 372.558 29.7827 370.456 31.6433C369.78 32.2403 368.921 33.0464 368.128 32.7196C367.417 32.4276 367.853 31.2773 367.814 30.5104C367.788 29.9657 367.857 29.4036 367.971 28.8677C368.459 26.567 369.026 24.2794 369.471 21.9701C369.85 19.9918 370.116 17.9831 368.9 16.0092C368.197 17.2075 367.757 18.3186 367.391 19.4646C366.322 22.8284 365.904 26.3143 365.376 29.7784C364.805 33.4908 364.286 37.225 362.633 40.663C361.826 42.3405 360.754 43.8177 358.957 44.8765C358.176 37.7479 361.495 31.1074 360.784 24.0049C357.74 25.408 356.528 27.9396 355.756 30.7501C354.836 34.1052 354.653 37.5736 354.234 41.0072C353.864 44.0399 353.524 47.0857 352.163 49.8918C351.265 51.748 349.987 53.1946 347.937 53.9572C347.711 52.663 347.767 51.4691 347.802 50.2752C347.946 45.7436 348.91 41.3253 349.555 36.859C349.917 34.3492 350.275 31.835 349.847 29.1727C348.919 29.6084 348.448 30.323 347.964 30.9897C346.712 32.7196 346.001 34.6934 345.478 36.7457C344.301 41.3819 344.109 46.1663 343.389 50.8722C342.87 54.2491 342.295 57.6086 340.507 60.6021C339.229 62.7415 337.467 64.2797 334.807 65.0422C337.088 55.7785 338.457 46.5497 338.771 37.0115C336.473 37.7828 334.999 39.2599 333.918 41.1946C332.653 43.4604 332.051 45.9353 331.619 48.4626C330.721 53.7611 330.625 59.1511 329.805 64.4583C329.374 67.2426 328.82 69.9965 327.154 72.3625C325.855 74.2056 324.097 75.1555 321.76 75.0597C323.665 64.4365 327.145 54.0879 324.743 43.0551C323.757 43.5301 323.103 44.127 322.492 44.7806C320.661 46.7414 319.671 49.138 318.952 51.6609C317.369 57.2382 317.059 63.0204 316.243 68.7241C315.716 72.3974 315.201 76.0749 313.531 79.4562C312.594 81.356 311.294 82.9072 309.284 83.7308C308.843 83.9094 308.281 84.3233 307.88 83.9878C307.487 83.6567 307.784 83.0336 307.858 82.563C308.682 77.112 309.567 71.6653 310.365 66.21C311.141 60.9027 311.486 55.5563 311.643 50.1794C309.223 50.7022 307.186 52.1881 305.813 54.419C304.696 56.2273 304.003 58.2056 303.541 60.2709C302.302 65.8352 302.324 71.5303 301.766 77.1686C301.373 81.1164 300.898 85.0467 299.045 88.6458C297.697 91.2689 295.639 93.0641 292.791 93.9312C291.937 94.1927 291.527 94.1883 291.727 93.0293C292.281 89.8179 292.695 86.5848 293.179 83.3604C294.544 74.3277 295.796 65.2818 295.683 56.114C295.669 55.1816 295.683 54.2491 295.683 53.2992C294.819 53.3166 294.435 53.7611 294.017 54.0792C290.794 56.5193 289.05 59.918 287.907 63.6784C286.132 69.5302 285.827 75.6131 285.182 81.6392C284.698 86.1752 284.244 90.7199 282.77 95.0772C281.057 100.145 278.026 103.853 272.54 105.077C271.72 105.26 271.45 105.112 271.681 104.232C272.239 102.101 272.749 99.9574 273.26 97.8136C276.098 85.8571 277.712 73.7568 277.503 61.4474C277.498 61.0727 277.712 60.5542 277.298 60.345C276.901 60.1446 276.578 60.5803 276.255 60.7851C272.623 63.0988 270.486 66.5716 268.894 70.4322C266.33 76.6545 265.31 83.2427 264.372 89.8441C263.417 96.5979 262.781 103.391 261.616 110.114C261.538 110.568 261.642 111.195 260.949 111.304C258.917 111.626 257.277 112.873 255.433 113.626C254.548 113.988 253.658 114.345 252.672 114.045C251.748 113.761 251.251 113.4 251.669 112.219C252.406 110.149 252.973 108.014 253.514 105.879C256.946 92.2929 257.779 78.454 257.399 64.5106C257.399 64.4496 257.277 64.3886 257.168 64.2927C253.933 66.4888 251.643 69.4867 249.921 72.9464C246.284 80.258 245.216 88.2144 244.191 96.1709C243.388 102.389 242.446 108.598 241.967 114.842C241.723 118.019 240 119.491 237.519 120.694C235.251 121.796 232.914 122.463 230.328 122.302C235.177 103.87 236.202 85.1425 237.318 66.1097C233.258 69.5695 230.406 73.4649 228.278 77.8963C224.485 85.7961 223.102 94.2973 222.199 102.89C221.449 110.023 220.935 117.186 220.316 124.332C220.272 124.825 220.276 125.313 219.801 125.674C216.984 127.822 214.01 129.613 210.43 130.206C209.449 130.367 209.143 130.328 209.388 129.151C211.193 120.45 212.283 111.644 213.155 102.807C213.94 94.8681 214.708 86.929 215.484 78.99C215.698 76.7939 215.916 74.6022 216.164 72.0444C214.921 73.051 213.953 73.7568 213.072 74.5586C207.796 79.3647 205.009 85.5783 203.191 92.3016C200.662 101.661 200.038 111.278 199.576 120.903C199.38 125.016 199.306 129.13 199.144 133.243C199.127 133.674 199.393 134.319 198.617 134.446C195.512 134.951 193.03 136.847 190.27 138.132C188.687 138.868 187.047 139.4 185.251 139.313C185.264 139.117 185.251 139.003 185.286 138.921C189.032 130.319 190.069 121.16 190.793 111.953C191.543 102.398 191.718 92.8027 192.559 83.2514C192.699 81.6523 193.091 80.0488 192.887 78.258C192.193 78.698 191.635 79.0161 191.112 79.3865C186.537 82.6327 183.633 87.16 181.483 92.2057C177.157 102.354 175.766 113.134 174.842 123.997C174.262 130.803 174.087 137.626 173.956 144.454C173.948 144.842 174.209 145.4 173.512 145.548C170.577 146.184 168.353 148.154 165.863 149.627C164.38 150.502 162.81 151.108 161.092 151.352C160.19 151.478 159.932 151.4 160.277 150.393C163.103 142.067 164.188 133.413 164.843 124.703C165.767 112.419 165.593 100.123 165.095 87.8266C165.052 86.7068 164.956 85.587 164.873 84.2667C161.777 86.7678 159.374 89.5696 157.355 92.6938C151.394 101.91 149.092 112.267 148.019 122.982C146.933 133.818 147.334 144.646 148.603 155.439C148.852 157.557 148.607 158.816 146.414 159.762C144.142 160.742 142.184 162.433 140.017 163.683C138.072 164.807 135.974 165.431 133.672 164.838C132.957 164.655 132.826 164.424 133.14 163.701C133.846 162.049 134.518 160.367 135.032 158.646C137.819 149.378 138.307 139.805 138.656 130.223C139.101 118.032 138.809 105.822 139.572 93.6393C139.637 92.5848 139.698 91.5304 139.773 90.2929C136.886 92.0968 134.64 94.2275 132.691 96.6676C127.724 102.877 125.09 110.145 123.298 117.761C120.585 129.304 119.874 141.069 119.687 152.873C119.574 160.049 119.674 167.23 119.678 174.411C119.678 174.982 119.844 175.561 119.059 175.897C117.188 176.69 115.679 178.041 114.101 179.278C111.947 180.964 109.653 182.328 106.666 182.568C108.637 178.311 109.893 173.962 110.625 169.465C112.226 159.622 111.711 149.749 111.074 139.875C110.46 130.358 109.487 120.868 109.378 111.321C109.335 107.374 109.356 103.43 109.635 99.2995C106.435 100.611 103.997 102.628 101.917 105.108C97.9006 109.901 95.6636 115.565 94.0414 121.496C91.2636 131.635 90.435 142.019 90.326 152.481C90.1908 165.509 91.2025 178.446 93.3698 191.296C93.4701 191.901 93.6882 192.511 93.0864 193.104C90.8101 195.37 88.6079 197.71 86.3403 199.984C83.7064 202.62 80.6451 204.551 76.9734 205.431C75.8745 205.697 75.4864 205.631 75.8527 204.276C78.2947 195.274 79.3762 186.08 79.5724 176.768C79.8253 164.995 78.8311 153.304 77.1914 141.661C75.6913 130.999 74.0953 120.35 72.5429 109.692C72.3859 109.587 72.2289 109.487 72.0763 109.382C71.7928 109.792 71.5486 110.236 71.2172 110.598C67.2664 114.907 64.4798 119.918 62.3431 125.317C57.9518 136.419 56.3296 148.062 55.8063 159.875C54.908 180.137 56.9968 200.154 61.0872 219.989C61.3357 221.191 61.2136 222.058 60.3153 223.065C51.8511 232.564 42.6412 241.322 33.4095 250.045C22.1762 260.655 12.0592 272.263 2.17778 284.098C1.27511 285.178 0.490173 286.342 0.0977054 287.723C-0.146497 288.582 0.0279334 289.009 1.07015 289C6.49493 288.961 11.9241 288.969 17.3488 289C18.0204 289 18.4695 288.765 18.9013 288.298C21.1427 285.863 23.4495 283.479 25.6561 281.009C34.2511 271.379 42.083 261.126 50.1635 251.078C57.2454 242.272 64.4929 233.614 72.5429 225.662C73.245 224.969 73.7246 224.808 74.5314 225.392C75.421 226.037 76.3891 226.573 77.3266 227.161C89.2925 234.668 101.176 242.316 114.088 248.18C130.946 255.841 148.446 259.723 167.036 257.296C169.583 256.965 172.134 256.616 174.737 255.862C174.489 255.645 174.393 255.531 174.275 255.457C161.249 247.27 148.612 238.468 135.15 230.978C122.439 223.906 109.191 218.198 94.8612 215.274C91.8784 214.664 88.8695 214.198 85.6862 213.631C86.8418 212.407 87.8971 211.283 88.9567 210.167C92.9643 205.945 96.9064 201.657 101.939 198.559C103.125 197.827 103.993 197.636 105.004 198.79C105.724 199.609 106.666 200.241 107.503 200.956C117.476 209.457 127.61 217.745 139.123 224.141C152.894 231.793 167.476 235.971 183.389 234.398C184.985 234.241 186.585 234.05 188.168 233.78C189.686 233.518 191.234 233.335 192.887 232.708C184.23 229.052 176.647 224.006 169.286 218.594C163.953 214.673 158.711 210.62 153.243 206.882C144.5 200.899 135.202 196.084 124.837 193.54C121.239 192.655 117.585 192.093 113.726 191.614C115.2 189.017 116.839 186.773 118.981 184.917C122.373 181.971 126.215 181.004 130.598 182.232C133.986 183.182 136.96 184.93 139.79 186.921C147.583 192.402 155.292 198.006 163.329 203.13C172.788 209.161 182.73 214.019 194.077 215.283C199.013 215.832 203.928 215.653 209.322 214.673C208.79 214.381 208.598 214.311 208.446 214.189C200.745 208.154 193.087 202.054 185.334 196.089C175.295 188.363 164.72 181.5 152.929 176.668C149.057 175.082 145.084 173.784 140.906 172.542C145.546 168.45 150.378 165.03 155.999 162.803C156.819 162.481 157.277 162.812 157.852 163.278C164.302 168.481 170.477 174.006 176.996 179.121C189.01 188.551 202.088 195.466 217.664 196.612C220.739 196.838 223.809 196.768 227.267 196.707C226.443 195.993 225.954 195.57 225.461 195.147C220.272 190.707 214.808 186.616 209.266 182.633C201.617 177.139 193.549 172.176 187.231 164.995C185.203 162.69 182.395 161.478 179.455 160.624C177.82 160.149 176.194 159.653 174.593 159.069C172.574 158.332 170.9 157.095 169.552 155.396C168.994 154.69 169.046 154.232 169.735 153.661C170.873 152.72 172.116 152.001 173.499 151.518C175.954 150.655 178.435 149.862 180.864 148.925C181.732 148.59 182.255 148.633 182.935 149.308C187.545 153.862 192.141 158.433 196.859 162.868C203.945 169.531 211.524 175.5 220.734 179.069C227.585 181.723 234.628 182.594 242.259 181.592C241.33 180.973 240.676 180.542 240.026 180.102C232.264 174.842 225.496 168.389 218.497 162.215C210.334 155.012 201.765 148.446 191.434 144.568C191.378 144.546 191.365 144.415 191.299 144.258C192.171 143.326 193.231 142.589 194.356 141.936C197.317 140.21 200.579 139.195 203.732 137.914C204.787 137.487 205.402 137.644 206.204 138.376C212.122 143.753 217.32 149.844 223.085 155.365C229.303 161.322 236.132 166.328 244.391 169.126C247.849 170.298 251.373 171.13 255.42 171.505C244.444 155.971 230.289 144.298 215.327 133.426C221.829 129.544 228.104 130.01 233.812 134.707C236.93 137.274 239.56 140.319 242.207 143.335C246.855 148.624 252.31 152.759 258.887 155.361C263.23 157.078 267.721 158.306 272.248 159.413C273.53 159.727 274.773 160.228 276.273 160.311C276.042 159.914 275.906 159.653 275.745 159.409C272.797 154.956 269.374 150.895 265.585 147.143C257.548 139.191 248.277 132.829 238.971 126.52C238.504 126.202 238.051 125.866 237.397 125.4C239.433 125.269 241.042 124.72 242.542 123.879C246.166 121.844 249.459 121.814 252.934 124.568C258.006 128.581 263.339 132.263 268.624 135.992C274.385 140.058 280.459 143.531 287.441 145.104C291.357 145.984 295.299 146.171 299.524 145.413C286.8 134.912 273.639 125.517 259.436 117.352C263.413 114.559 267.621 113.186 272.392 114.08C276.796 114.903 280.464 117.273 284.035 119.801C287.598 122.319 290.999 125.069 294.684 127.413C298.923 130.11 303.397 132.154 308.507 132.463C311.22 132.629 313.849 132.263 316.549 131.374C305.001 122.31 294.387 112.123 279.404 108.367C282.722 105.238 286.146 103.352 290.524 103.805C293.886 104.154 296.895 105.517 299.764 107.199C303.222 109.23 306.615 111.369 310.073 113.395C314.743 116.127 319.632 118.276 325.144 118.524C327.974 118.65 330.756 118.38 333.643 117.273C322.244 109.844 310.801 102.99 298.665 97.2777C302.145 93.2166 306.637 92.1012 311.992 93.879C316.021 95.2167 319.575 97.4955 323.242 99.5478C326.565 101.408 329.884 103.273 333.569 104.363C338.065 105.687 342.443 105.639 346.734 103.269C341.575 99.7439 336.194 96.8637 330.608 94.3539C325.484 92.0532 320.225 90.1229 314.831 88.5499C314.477 88.4454 313.544 88.6937 313.919 87.6523C315.153 84.2493 319.161 81.722 322.767 82.1142C324.272 82.2754 325.724 82.6153 327.15 83.1382C330.97 84.5369 334.515 86.5238 338.2 88.2101C341.811 89.8615 345.487 91.3125 349.547 91.4345C352.691 91.5304 355.791 90.6938 357.583 89.1121C347.61 85.1295 338.3 79.6741 327.778 77.173C329.784 72.0793 333.434 70.0749 338.68 71.003C343.302 71.8222 347.58 73.7176 351.993 75.1817C355.918 76.4845 359.864 77.6044 364.068 77.1773C366.113 76.9682 368.032 76.3843 369.846 75.1555C367.888 73.2601 365.572 72.3581 363.13 71.7438C358.687 70.6283 354.077 70.5716 349.603 69.6435C347.07 69.1163 344.684 68.3015 342.77 66.4322C341.837 65.5215 341.75 64.8156 342.779 63.8788C344.379 62.4234 346.254 61.7263 348.343 61.4953C352.8 60.9986 357.139 61.9877 361.512 62.5542C365.298 63.0465 369.074 63.6914 372.903 63.0117C375.114 62.6195 377.163 61.8831 378.846 60.0748C374.856 59.2165 371.019 58.7677 367.203 58.1881C362.742 57.5084 358.285 56.8069 353.951 55.4822C352.987 55.1859 352.778 54.8243 353.332 53.9528C354.518 52.0879 356.297 51.1728 358.351 50.6587C361.962 49.7567 365.638 50.0617 369.301 50.0574C372.563 50.0574 375.833 50.2796 379.078 49.7523C381.206 49.4081 383.246 48.846 384.947 47.0247C377.556 45.822 370.278 46.4016 362.978 46.0791C363.911 43.9832 365.494 42.4495 367.809 41.3166C369.846 40.3187 372.022 39.7261 374.215 39.2033C377.769 38.3579 381.406 37.8089 384.842 36.5104C387.258 35.5998 389.452 34.371 390.939 32.0224C389.146 31.7958 387.511 31.8568 385.867 32.201C383.155 32.7675 380.647 33.9396 378.031 34.7893C376.479 35.2904 374.93 35.4821 373.291 35.3514C371.869 35.2381 371.9 34.6978 372.475 33.6651C373.23 32.3187 374.237 31.2424 375.51 30.384L375.545 30.371Z" fill="#F2F1F1"/>
</svg>
