<svg width="540" height="695" viewBox="0 0 540 695" fill="none" xmlns="http://www.w3.org/2000/svg">
<path d="M0 0H540V695H0V0Z" fill="#F5F4F4"/>
<path d="M337.732 113.043C337.732 112.696 337.963 112.464 338.426 112.696C338.657 112.696 338.888 112.696 339.119 112.696C339.234 112.349 339.466 112.117 339.466 112.233V112.002C339.35 112.002 339.119 111.076 339.119 111.076C339.928 110.382 340.274 110.382 340.505 110.382C340.736 110.382 341.199 110.382 341.314 110.151C341.43 109.92 341.545 110.151 341.545 109.92C341.661 109.92 341.661 109.688 341.776 109.457C341.776 109.457 341.892 109.457 341.892 109.226C342.007 108.879 342.239 108.532 342.585 108.069C342.701 108.069 342.816 108.069 342.816 107.838C343.278 107.375 344.318 106.797 344.896 106.681H345.012C345.127 106.45 345.243 106.219 345.474 105.987L345.82 105.64C345.936 105.178 346.283 104.715 346.86 104.368L347.091 104.715V103.674C347.207 103.674 346.745 102.402 346.745 102.402H345.82C344.549 102.402 343.972 102.171 343.163 101.13C342.123 99.8574 342.123 99.7417 341.892 97.6598C341.815 96.4261 341.892 95.5009 342.123 94.884C342.354 94.4214 342.701 93.8431 342.816 93.6118C343.047 93.3804 342.855 93.072 342.239 92.6865C341.622 92.3009 341.276 92.2238 341.199 92.4552C340.968 92.6865 340.737 92.6865 339.812 92.6865C338.657 92.6865 338.195 92.3395 338.195 91.8769C338.195 91.4142 338.079 91.6455 337.963 91.6455C337.848 91.6455 337.732 91.6455 337.732 92.2238C337.732 92.9178 337.386 93.1491 336.924 92.6865C336.692 92.4552 336.577 92.2238 336.692 91.8769C336.808 91.4142 336.692 91.2986 336.23 91.1829C335.768 91.0672 335.768 90.9516 335.768 90.4889C335.884 89.6793 336.115 89.5637 336.924 89.5637C337.732 89.5637 337.617 89.5637 337.617 90.0263V90.4889L337.963 90.142C338.195 89.9107 338.426 89.795 338.426 89.795C338.426 89.795 338.772 90.0263 339.234 90.3733C339.581 90.7203 340.159 90.9516 340.505 91.0672C340.891 91.0672 341.006 90.9901 340.852 90.8359C340.621 90.4889 340.737 90.2576 341.314 90.142C341.776 90.142 341.892 90.142 341.661 90.4889C341.43 90.9516 341.661 91.1829 342.123 90.9516C342.701 90.7203 342.932 90.9516 342.932 91.8769C342.932 92.8021 343.047 92.4552 343.394 92.5708C344.087 92.8021 344.318 93.0335 344.318 93.3804C344.318 93.7274 344.318 93.7274 345.589 93.7274H346.86L346.398 93.1491C346.167 92.8021 345.82 92.3395 345.705 92.1082C345.474 91.4142 345.243 88.1758 345.474 87.8288C345.705 87.5975 345.358 87.3661 344.665 87.3661C343.972 87.3661 344.203 87.3661 343.972 86.4409C343.856 85.9782 343.741 85.1686 343.625 84.5903V83.665H344.203C344.665 83.665 344.781 83.665 344.781 82.9711C344.781 82.2771 344.665 82.0458 344.665 81.6988C344.434 81.0049 343.741 80.1953 343.279 80.1953C342.816 80.1953 341.776 79.27 341.776 78.8073C341.776 78.3447 341.892 78.4604 342.008 78.4604C342.123 78.4604 342.239 78.4604 342.354 78.4604C342.47 78.2291 342.123 77.3038 341.661 77.1881C341.43 77.1881 341.314 76.8411 341.314 76.7255C341.314 76.6098 341.083 76.1472 340.852 75.9159C340.544 75.5303 340.467 75.2219 340.621 74.9906C340.775 74.7593 340.775 74.6436 340.621 74.6436C340.505 74.6436 340.274 74.6436 340.159 74.9906C339.928 75.3376 339.466 75.4532 339.234 74.9906C339.119 74.9906 338.888 74.9906 338.426 74.9906C337.501 74.9906 337.386 74.9906 337.848 74.528L338.195 74.181H337.732C337.386 73.9497 337.27 73.834 337.27 73.2557C337.27 72.6774 337.155 72.4461 336.808 72.0991C336.577 71.8678 336.23 71.6365 336.115 71.7521C335.884 71.7521 335.884 71.7521 335.884 71.5208C335.884 71.2895 335.884 71.0582 335.653 70.8269C335.537 70.5955 335.421 70.3642 335.421 70.2486C335.537 70.0172 337.386 71.5208 337.617 72.0991C337.848 72.6774 338.079 72.6774 338.195 72.0991C338.272 71.7136 338.079 71.4051 337.617 71.1738C337.155 70.9425 336.924 70.5955 337.27 70.3642C337.386 70.3642 337.27 70.3642 336.924 70.1329C336.461 70.1329 336.23 69.9016 335.768 69.2076C335.075 68.2823 334.959 67.704 335.19 66.8944C335.306 66.4318 335.306 66.2005 335.19 66.2005C335.075 66.2005 335.075 65.9692 335.306 65.6222C335.421 65.3909 335.653 65.0439 335.653 64.8126C335.653 64.5812 335.884 64.4656 336.115 64.3499C336.461 64.3499 336.924 63.4246 336.692 63.4246C336.461 63.4246 336.346 63.4246 336.115 63.656C335.884 63.8873 335.421 63.8873 335.19 63.8873H334.728L335.075 64.1186C335.306 64.2728 335.306 64.3885 335.075 64.4656C334.844 64.4656 334.728 64.8126 334.613 65.1595C334.497 65.6222 334.266 65.7378 333.919 65.5065C333.688 65.5065 333.573 65.5065 333.457 65.9692C333.303 66.3547 333.303 66.6246 333.457 66.7788C333.804 67.1258 333.342 67.2414 332.879 66.7788C332.648 66.7788 332.186 66.5475 331.955 66.5475C331.647 66.5475 331.57 66.7017 331.724 67.0101C331.955 67.5884 331.724 67.8197 331.377 67.4727C331.031 67.1258 330.684 67.1258 330.684 67.4727C330.684 67.8197 330.569 67.8197 330.106 67.4727C329.875 67.2414 329.529 67.1258 329.413 67.1258C329.298 67.1258 328.951 67.1258 328.604 66.7788C327.795 66.3161 327.911 66.7788 328.72 67.4727C329.182 67.8583 329.298 68.0896 329.066 68.1667L328.72 68.398L329.066 68.6293C329.298 68.6293 329.991 68.9763 330.684 68.9763C331.955 68.9763 332.533 69.3233 332.417 69.5546C332.302 69.7859 329.644 69.7859 329.182 69.5546C328.835 69.5546 328.72 69.5546 328.489 69.7859L328.142 70.1329V69.4389C328.142 68.8606 328.027 68.6293 327.564 68.1667C327.102 67.704 326.871 67.5884 326.64 67.704C326.178 67.704 326.178 67.704 326.525 67.0101C326.64 66.6631 326.756 66.3161 326.64 65.7378V65.0439H324.791C323.867 65.0439 323.058 65.0439 323.058 65.0439C323.058 65.0439 323.289 64.6969 323.636 64.5812C324.098 64.2343 324.329 64.2343 324.676 64.3499C325.061 64.5041 325.254 64.5041 325.254 64.3499C325.254 64.3499 324.676 63.7716 323.983 63.309C322.712 62.3837 322.596 62.2681 323.751 62.0367C324.907 61.8054 324.445 62.0367 324.791 62.4994L325.138 63.0777L325.369 62.615C325.485 62.3837 325.6 62.1524 325.716 62.1524C325.831 62.1524 325.947 62.4994 326.062 63.0777C326.293 64.1186 326.524 64.3499 326.871 63.8873C327.333 63.1933 327.449 63.1933 328.142 63.1933C328.835 63.1933 329.182 62.962 328.373 62.7307C328.142 62.7307 327.911 62.7307 327.795 62.7307C327.68 62.7307 327.564 62.3837 327.333 62.0367C326.987 61.1115 326.64 60.9958 324.445 61.1115C322.596 61.1115 322.249 61.1115 321.441 60.3018C321.094 59.9549 321.094 59.7235 321.094 58.9139C321.094 58.1043 321.094 57.9887 320.401 57.2947C319.823 56.7164 319.592 56.6007 319.13 56.6007C318.667 56.6007 318.552 56.6007 318.321 56.1381C318.09 55.6755 317.974 55.6755 317.396 55.6755C316.819 55.6755 315.201 56.1381 314.854 56.3694C314.739 56.3694 314.623 56.6007 314.854 56.9477C314.932 57.179 314.854 57.2947 314.623 57.2947C314.277 57.2947 313.815 57.873 313.815 58.3356C313.815 58.7983 313.583 58.567 313.352 58.6826C313.006 58.6826 312.89 58.6826 312.544 58.3356L312.197 57.873H312.659C312.89 57.6417 313.352 57.526 313.468 57.2947L313.815 56.9477L313.468 56.4851L313.121 56.0224H313.815C314.161 56.0224 314.508 55.9068 314.508 55.9068C314.508 55.6755 314.046 55.5598 313.237 55.5598C312.428 55.5598 312.659 55.4442 312.544 54.6345C312.312 53.5936 311.966 53.3623 311.157 53.8249C310.464 54.2876 310.002 54.1719 309.77 53.7093C309.424 53.2466 308.846 52.8996 308.153 52.8996C307.46 52.8996 307.575 52.784 307.344 52.3213C307.229 51.9744 306.997 51.743 306.997 51.743C306.997 51.743 306.651 51.9744 306.189 52.3213C305.38 53.0153 305.264 53.3623 305.726 54.4032C305.958 54.8659 306.073 55.2128 305.958 55.2128C305.958 55.2128 305.495 55.2128 305.033 55.0972C304.571 54.9815 303.647 54.8659 302.953 54.8659C301.798 54.8659 301.567 54.8659 300.874 54.4032C299.834 53.7093 299.371 52.8996 299.256 51.3961C299.14 50.1238 299.256 50.0082 300.18 50.2395C300.758 50.4708 300.758 50.3551 301.22 50.0082C301.567 49.6612 301.682 49.5455 302.029 49.6612C302.376 49.7768 302.491 49.6612 302.722 49.3142C302.953 48.9287 302.876 48.6974 302.491 48.6202C302.145 48.5046 302.029 48.3889 302.145 48.3889C302.26 48.3889 302.376 48.2733 302.376 48.1576C302.376 47.9263 301.451 47.9263 301.336 48.1576C301.105 48.5046 300.874 48.2733 300.989 47.9263C300.989 47.695 300.989 47.4637 300.874 47.4637C300.758 47.4637 300.642 47.348 300.758 47.2323V46.7697C300.681 46.5384 300.527 46.5384 300.296 46.7697C300.065 47.001 300.065 47.2323 300.18 47.348C300.874 48.0419 299.256 49.5455 297.407 49.8925C296.367 50.1238 296.367 50.2395 297.407 52.09C297.946 53.1695 298.1 54.0562 297.869 54.7502C297.523 55.6755 297.061 55.9068 295.558 55.9068C294.056 55.9068 294.287 56.0224 294.056 56.0224C293.902 56.0996 293.825 56.061 293.825 55.9068C293.825 55.6755 293.825 55.4442 293.71 55.2128C293.132 54.4032 293.479 53.4779 294.75 52.3213C295.443 51.743 295.558 51.3961 295.558 51.1648C295.558 50.8178 295.443 50.7021 294.287 50.4708C292.785 50.1238 292.323 49.8925 291.63 49.1985C291.168 48.6202 290.937 48.1576 291.283 47.8106C291.399 47.695 291.514 47.4637 291.514 47.1167C291.63 46.654 291.514 46.5384 291.283 46.5384C291.052 46.4227 290.821 46.1914 290.706 45.9601C290.59 45.7288 289.781 44.8035 288.972 43.9939C286.662 41.6807 286.199 41.1024 285.506 38.6735C285.159 37.5169 284.928 36.2447 284.813 35.7821V34.8568C284.697 34.8568 284.12 34.9724 284.12 34.9724C283.195 35.0881 283.195 35.3194 283.888 36.2447C284.466 37.0543 284.466 37.17 284.351 38.0952C284.235 38.5579 284.12 39.0205 284.12 39.1362C283.888 39.2518 283.542 38.7892 283.426 38.0952C283.311 37.7483 283.195 37.5169 283.08 37.5169C282.733 37.5169 282.849 37.17 283.311 37.0543L283.773 36.823C283.773 36.823 283.542 36.5917 283.426 36.3604L283.08 36.0134L282.733 36.7073C282.386 37.4013 281.924 37.6326 282.155 36.9386C282.271 36.5917 282.155 36.5917 281.809 36.5917H281.346C281.346 36.7073 281.924 36.2447 281.924 36.2447C282.502 35.6664 282.617 35.4351 282.04 35.0881C281.462 34.7411 281.346 34.7411 281.809 35.3194L282.155 35.7821H281.578C281.115 35.5507 280.769 35.6664 280.538 35.7821C279.96 36.129 279.844 35.8977 280.307 35.4351C280.538 35.2038 280.576 35.011 280.422 34.8568C280.307 34.7411 279.96 34.5098 279.844 34.3941C279.613 34.2785 279.613 34.1628 280.307 34.2785C280.846 34.3556 281.231 34.2399 281.462 33.9315C281.693 33.5845 281.693 33.4689 281.462 33.1219C281.115 32.5436 281.231 32.4279 281.924 32.6593C282.386 32.7749 282.502 32.8906 282.386 33.5845C282.386 34.0472 282.386 34.3941 282.502 34.3941C282.617 34.3941 282.849 34.2785 283.08 33.9315C283.657 33.2375 283.773 33.2375 284.004 33.8158C284.12 34.2785 284.235 34.2785 284.697 34.2785H285.275V33.0062C285.275 31.6183 285.622 30.8087 286.315 30.1147C286.777 29.6521 286.893 29.5364 286.43 29.1895C285.968 28.8425 285.506 28.9582 284.582 29.6521C283.657 30.4617 283.542 30.4617 282.617 30.1147C282.271 29.9991 281.578 29.8834 281.115 29.8834C280.307 29.8834 280.191 29.8834 279.613 30.4617C278.804 31.2713 277.996 31.5027 276.84 31.387C275.916 31.2713 272.912 30.5774 272.45 30.2304C272.218 30.1147 272.103 30.1147 272.103 30.8087C272.103 31.5027 271.756 32.081 271.063 32.3123C270.832 32.3894 270.986 32.505 271.525 32.6593C272.565 32.8906 273.258 33.4689 273.489 34.2785C273.605 34.6255 273.72 34.8568 274.183 34.8568C274.76 34.9724 277.071 36.9386 278.458 38.3266C278.92 38.7892 281 41.4494 283.08 44.2252C285.159 47.001 287.47 50.0082 288.164 50.8178C289.55 52.5527 290.706 54.6345 291.63 57.4104V59.8392L291.399 60.8801C291.283 61.4584 290.821 62.3837 290.59 62.962C290.012 64.2343 289.666 64.3499 288.51 63.7716C287.355 63.1933 287.008 63.4246 286.893 63.7716C286.893 64.0029 287.239 64.5812 288.164 65.7378C288.857 66.6631 289.781 67.5884 290.012 67.9354L290.475 68.5137L291.283 68.1667C291.745 67.9354 292.208 67.8197 292.208 67.8197C292.439 67.8197 291.861 68.398 291.283 68.745L290.706 69.2076L291.399 70.2486L292.092 71.2895L292.785 70.5955C293.825 69.5546 294.056 69.7859 293.248 70.9425C293.016 71.2895 292.785 71.7521 292.785 71.8678C292.785 72.2148 296.367 76.6098 298.1 78.4604L298.678 79.1543L298.909 78.229C299.487 75.8002 299.718 75.2219 299.834 75.2219C299.949 75.2219 300.065 74.9906 299.949 74.528C299.834 73.6027 300.065 73.3714 301.567 73.3714C303.069 73.3714 302.722 73.3714 302.953 73.14C303.184 72.9087 303.531 72.9087 303.993 72.9087C304.687 72.9087 304.802 72.9087 305.033 72.4461C305.495 71.6365 305.842 71.2895 306.651 71.1738C307.113 71.1738 307.46 70.8269 307.691 70.4799C308.037 69.9016 308.384 69.9016 308.268 70.4799C308.268 70.7112 308.153 70.9425 308.153 71.0582C308.153 71.4052 307.691 71.7521 307.229 71.7521C306.766 71.7521 306.535 72.0991 305.726 72.9087L304.687 74.0653H303.184C302.376 74.0653 301.567 74.0653 301.567 74.0653C301.451 74.0653 300.758 76.3785 300.527 77.4194C300.411 77.7664 300.18 78.229 299.718 78.8073C298.447 80.0796 298.447 80.1953 299.834 81.9302C300.758 83.0867 306.766 90.3733 310.348 94.6527C314.508 99.5104 322.365 110.267 323.289 112.233C323.636 112.927 323.983 114.199 324.214 115.009C324.56 116.628 324.907 117.669 325.254 118.016C325.485 118.247 325.831 118.247 327.102 118.247C328.951 118.247 329.298 118.247 330.222 117.091C330.8 116.397 330.915 116.397 330.684 115.818C330.569 115.471 330.222 114.893 329.875 114.43C329.298 113.852 329.298 113.621 329.298 113.274C329.413 112.58 328.951 112.002 327.911 111.655C327.372 111.5 326.37 110.537 324.907 108.763C323.52 107.028 321.787 104.252 322.249 104.368C322.365 104.368 322.943 105.062 323.636 105.872C325.022 107.375 325.485 107.607 326.987 107.607C328.489 107.607 328.373 107.954 329.413 109.226C330.222 110.267 331.493 111.423 332.302 111.886C332.533 111.886 332.764 111.886 333.342 111.655C334.844 110.729 334.959 110.498 334.035 110.267C333.111 110.035 333.573 110.267 333.688 109.688C333.804 109.11 333.804 109.226 333.457 109.341C332.186 109.688 332.302 109.688 332.533 109.341C332.764 108.879 332.764 108.763 332.186 108.879C331.608 108.994 331.493 108.879 332.071 108.647C332.533 108.647 332.533 108.3 331.955 107.954C331.608 107.722 331.493 107.722 331.262 107.954C330.8 108.185 330.684 107.954 331.031 107.607C331.185 107.375 331.185 107.26 331.031 107.26C330.684 107.26 330.684 107.028 331.031 106.681C331.262 106.527 331.416 106.527 331.493 106.681C331.608 107.028 331.84 107.028 331.84 106.681C331.84 106.334 332.186 106.103 332.186 106.681V107.144C332.302 107.144 332.533 106.681 332.533 106.681C332.879 106.103 333.111 106.103 332.995 106.681C332.995 107.607 332.995 107.954 333.226 108.3C333.38 108.455 333.534 108.455 333.688 108.3C334.035 107.954 334.266 108.069 334.266 108.532C334.266 108.994 334.497 109.11 334.959 109.573C335.768 110.267 335.884 110.267 337.155 109.573C337.501 109.341 337.963 109.226 337.963 109.226C338.195 109.226 337.963 109.457 336.577 110.614L335.999 111.076L336.461 111.539C337.155 112.233 336.924 112.349 336.115 111.77L335.421 111.308C335.306 111.308 334.959 111.539 334.613 111.77C333.919 112.233 333.804 112.464 334.035 112.927C334.266 113.274 335.653 114.083 336.23 114.315H336.692C337.039 114.083 337.732 113.39 337.732 113.158V113.043Z" fill="#B2B2B2"/>
<path d="M374.129 144.964L372.165 143.461C371.125 142.651 370.201 141.957 370.085 141.957C369.97 141.957 369.854 141.957 369.623 142.304C369.277 142.767 368.814 142.767 368.468 142.304C368.314 142.073 367.813 142.15 366.966 142.535C366.118 142.921 365.695 142.998 365.695 142.767C365.81 142.767 365.81 142.073 365.926 141.726V140.916C366.041 140.916 365.117 139.991 365.117 139.991L364.193 139.066L363.615 139.297C363.268 139.297 362.806 139.528 362.459 139.528C361.882 139.528 361.766 139.528 362.113 139.991C362.459 140.454 362.459 140.569 361.997 140.685C361.766 140.685 361.535 140.916 361.535 141.148C361.535 141.61 361.188 141.379 360.957 140.801C360.842 140.338 360.495 139.991 359.34 139.066C359.109 139.066 358.993 138.603 358.993 138.372C358.993 138.14 358.916 138.218 358.762 138.603C358.646 138.95 358.415 139.528 358.184 139.875C357.953 140.222 357.838 140.454 357.838 140.569C357.838 140.685 357.722 140.569 357.606 140.569C357.375 140.569 357.491 139.181 357.722 138.719C357.953 138.256 357.26 138.025 355.873 138.14C355.18 138.14 354.718 138.14 354.718 138.372C354.833 138.372 354.487 138.719 354.14 138.719C353.794 138.719 354.025 138.719 354.025 138.372C354.025 138.025 353.678 137.793 352.754 137.678C351.714 137.678 351.136 137.678 351.02 138.603C350.905 139.528 350.443 139.413 350.212 138.834L349.981 138.372V138.95C349.634 139.76 349.403 139.413 349.518 138.372V137.562C349.634 137.562 349.056 137.562 349.056 137.562C348.363 137.562 348.247 137.099 348.71 136.406C349.056 135.943 348.941 135.596 348.478 135.827C348.016 136.059 347.554 135.596 347.554 135.365C347.554 135.133 347.785 135.365 348.016 135.133C348.247 134.902 348.594 134.902 348.825 134.671L349.172 134.324V134.786C348.941 135.48 349.172 135.596 349.865 135.018C350.558 134.555 350.674 134.555 350.327 135.249C350.173 135.557 350.289 135.904 350.674 136.29C351.483 136.984 352.176 136.984 352.869 136.29C353.1 136.059 353.447 135.827 353.447 135.827C353.678 135.827 353.794 136.406 353.562 136.637C353.331 136.868 353.447 136.868 353.678 136.637C354.025 136.637 354.256 136.868 353.909 137.099C353.678 137.331 353.909 137.562 354.371 137.562C355.064 137.562 354.949 137.215 354.025 135.712C353.562 135.018 353.216 134.208 353.1 133.861C352.985 133.514 352.869 132.936 352.638 132.589C352.407 132.126 352.291 131.895 352.523 131.548C352.754 130.854 352.407 129.697 351.945 129.582C351.714 129.582 351.598 129.582 351.598 129.119C351.598 128.656 351.714 128.656 352.176 128.656C352.522 128.656 352.869 128.425 353.1 128.194C353.331 128.194 353.678 127.847 353.909 127.847C354.14 127.847 354.256 127.847 354.371 127.384V126.921C354.487 126.921 355.064 127.268 355.064 127.268L355.642 127.615V127.153C356.104 126.343 355.411 125.996 354.487 126.459C354.256 126.459 353.794 126.69 353.562 126.69C353.331 126.69 353.1 126.69 352.985 127.037C352.523 127.847 350.789 127.037 350.558 125.996C350.327 125.071 350.558 123.683 351.136 123.105C351.945 122.295 351.829 121.254 350.905 121.254C349.981 121.254 350.443 121.254 350.443 121.254C350.443 121.254 350.558 121.254 350.789 121.254C351.02 121.254 351.136 121.254 351.136 120.907C351.136 120.676 351.02 120.676 350.789 120.907C350.443 121.254 350.327 120.907 350.674 120.213C350.789 119.751 350.789 119.635 350.558 119.172C349.981 118.363 350.212 118.247 351.02 119.172C351.483 119.519 351.598 119.866 351.714 120.56C351.829 121.023 351.829 121.37 351.945 121.254C351.945 121.254 352.06 121.023 352.176 121.023C352.291 121.023 352.291 121.37 352.291 121.832V122.642C352.176 122.642 352.523 121.948 352.523 121.948C352.754 121.601 352.869 121.023 352.985 120.676C353.1 120.329 353.216 120.098 353.331 120.098C353.678 120.098 353.447 119.751 352.869 119.635C352.523 119.635 352.407 119.404 352.291 119.057C352.291 118.825 352.06 118.478 351.714 118.363C351.406 118.208 351.329 117.977 351.483 117.669C351.714 117.206 352.06 117.206 352.06 117.669C352.06 118.131 352.176 118.016 352.291 118.131C352.523 118.131 352.638 118.131 353.1 117.9C353.562 117.669 353.909 117.437 354.833 117.206C355.527 117.206 356.335 116.975 356.682 116.859L357.375 116.628H356.451C355.989 116.396 355.296 116.281 355.064 116.049C354.833 115.818 354.371 115.702 354.14 115.702C353.794 115.702 353.678 115.471 353.678 115.124V114.662C353.562 114.662 353.562 115.124 353.562 115.124C353.562 115.702 353.331 116.165 353.216 115.818C353.216 115.818 353.1 115.356 352.985 115.009C352.869 114.662 352.754 114.43 352.754 114.43C352.754 114.43 352.985 114.43 353.331 114.083C353.716 113.929 354.025 113.929 354.256 114.083L354.602 114.43V113.968C354.602 113.621 354.718 113.158 354.949 112.927C355.411 112.348 355.296 112.233 354.14 112.117C352.407 111.77 351.02 110.729 349.172 107.953C348.594 107.259 348.132 106.565 347.901 106.218H348.016L347.092 104.715L346.861 104.368C346.283 104.715 345.936 105.177 345.821 105.64L345.474 105.987C345.243 106.218 345.128 106.45 345.012 106.565H344.897C344.319 106.797 343.279 107.375 342.817 107.838C342.817 107.838 342.701 107.838 342.586 108.069C342.239 108.532 342.008 108.879 341.892 109.226C341.892 109.226 341.777 109.226 341.777 109.457C341.661 109.688 341.661 109.804 341.546 109.92C341.546 109.92 341.43 109.92 341.315 110.151C341.199 110.382 340.621 110.382 340.506 110.382C340.275 110.382 339.928 110.382 339.119 111.076L339.35 112.001V112.233C339.35 112.233 339.235 112.464 339.119 112.695H338.426C337.964 112.464 337.733 112.695 337.733 113.042C337.733 113.389 337.039 113.968 336.693 114.199H336.231C335.422 114.199 335.191 114.199 335.075 114.199C334.613 113.505 334.498 113.389 334.035 113.621C333.573 113.621 333.573 113.852 333.573 114.777C333.573 115.702 333.573 115.818 333.227 116.165C332.995 116.396 332.764 116.628 332.533 116.628C332.187 116.628 332.187 116.859 332.533 117.437L332.764 117.9V117.553C332.764 117.322 332.957 117.245 333.342 117.322C334.382 117.553 334.844 117.553 334.96 117.09C334.96 116.859 335.191 116.628 335.191 116.628C335.306 116.628 335.884 116.975 336.346 117.553C337.271 118.478 337.386 118.478 337.617 118.131C337.733 118.131 337.848 117.669 337.848 117.437C337.848 117.206 337.964 117.09 338.079 117.09C338.426 117.09 338.773 116.628 338.657 115.934C338.657 115.009 338.888 115.124 339.581 116.396C340.159 117.437 340.159 117.553 340.044 118.941C340.044 120.098 339.928 120.56 339.581 121.023L339.235 121.601L339.581 122.179C339.813 122.526 339.928 122.873 339.813 123.105C339.697 123.336 339.697 123.683 339.813 124.03C339.928 124.493 340.044 124.608 340.506 124.84L341.084 125.071H340.275C339.581 125.071 339.119 125.418 339.813 125.418C340.506 125.418 340.159 125.418 340.044 125.649C340.044 125.649 339.928 126.459 339.928 127.153C339.928 127.847 339.813 128.425 339.697 128.541C339.466 128.772 337.155 128.078 336.808 127.731C336.346 127.384 336.462 126.921 337.155 126.227C337.617 125.649 337.733 125.534 337.617 125.302C337.386 124.84 336.577 124.261 336.115 124.261C335.653 124.261 335.191 123.914 333.689 121.485C332.995 120.329 332.302 119.288 332.071 119.288C331.724 119.288 331.262 119.519 331.031 120.213C330.8 120.907 330.453 120.791 330.453 119.982C330.453 119.172 330.453 119.404 330.107 119.635C329.991 119.635 329.645 120.213 329.414 120.56C329.182 120.946 329.182 121.37 329.414 121.832C329.529 122.179 330.222 123.105 330.8 123.914C331.378 124.724 332.649 126.459 333.573 127.847C334.497 129.235 335.768 131.085 336.462 131.895C337.848 133.745 339.581 137.331 339.697 138.603C339.697 139.181 339.928 139.76 340.159 140.107C340.852 141.148 341.199 142.535 341.315 144.617C341.43 145.774 341.546 146.699 341.546 146.815C341.777 147.162 342.355 146.815 344.203 145.774C345.243 145.196 346.168 144.617 346.168 144.617C346.283 144.617 346.399 144.617 346.514 144.964C346.861 145.311 347.092 145.311 347.092 144.733C347.092 144.155 347.439 144.039 348.132 143.345C349.634 141.957 350.096 141.726 352.06 141.726C354.025 141.726 354.371 141.726 354.718 142.42C354.833 142.651 354.833 142.767 354.602 142.998C354.371 142.998 354.14 143.229 353.909 143.229C353.678 143.229 353.1 143.461 352.638 143.808L351.829 144.386L352.407 144.964C352.792 145.35 353.485 145.543 354.487 145.543C356.104 145.543 356.22 145.543 356.451 146.584C356.682 147.393 356.913 147.509 357.491 147.278C357.722 147.278 357.953 147.278 358.184 147.278C358.415 147.278 358.762 148.087 358.762 148.55C358.762 149.012 358.3 148.781 358.184 148.55C358.069 148.55 357.838 148.318 357.491 148.318C357.144 148.318 356.798 148.318 356.682 148.318C356.335 148.087 355.296 148.781 354.371 149.822C354.025 150.169 353.793 150.4 353.793 150.285C353.793 149.475 353.216 149.475 352.638 150.285C352.176 151.094 351.367 151.441 350.558 151.441C349.749 151.441 349.865 151.441 350.212 151.673C350.327 151.673 350.443 151.904 350.443 152.135L349.865 152.367C349.981 152.598 349.981 152.713 349.981 152.713C349.981 152.713 350.096 153.407 350.327 153.986C350.558 154.564 350.674 155.142 350.674 155.489C350.674 156.646 353.447 157.456 354.833 156.646C355.411 156.299 355.527 156.299 356.335 156.646C357.722 157.34 358.531 156.993 359.802 155.605L360.842 154.448L361.651 154.795C362.459 155.027 362.806 155.027 364.655 154.564C365.81 154.333 367.197 154.101 367.543 153.986C368.006 153.986 368.583 153.523 369.045 152.945C369.392 152.482 369.97 152.02 370.201 152.02C370.432 152.02 370.779 152.02 371.01 151.673C371.356 151.21 373.089 150.632 373.783 150.632V148.781H373.667C374.707 148.203 374.592 147.624 374.476 146.931L374.129 144.964Z" fill="#B2B2B2"/>
<path d="M383.603 112.927C382.91 112.233 382.564 111.886 382.332 111.886C381.87 111.654 381.639 111.307 381.639 110.151C381.639 108.994 381.639 108.763 382.332 108.416C382.679 108.185 382.795 108.185 382.795 108.069C382.795 107.953 382.448 107.838 382.101 107.606C380.946 107.028 380.137 106.797 379.444 106.681C378.635 106.681 378.519 106.45 378.866 106.218C379.79 105.409 380.137 105.062 379.79 104.946C379.675 104.946 379.559 104.946 379.559 104.484C379.559 104.021 379.444 103.905 379.097 104.137C378.982 104.137 378.866 104.137 378.751 104.137C378.635 104.137 378.635 104.137 378.635 103.79C378.751 103.096 378.751 102.633 378.751 102.402C378.751 102.17 378.635 102.17 378.404 102.17C377.942 102.17 377.595 102.17 377.248 102.633C377.017 102.864 376.902 102.98 376.671 102.98C376.324 102.98 376.093 103.327 376.209 103.674C376.324 104.021 376.902 105.062 377.133 105.178C377.21 105.178 377.21 105.255 377.133 105.409C377.017 105.409 376.902 105.409 376.209 105.64C375.284 105.64 375.169 105.64 375.284 106.103C375.284 106.334 375.4 106.334 375.746 106.334C376.324 106.334 376.555 106.334 376.555 106.681C376.555 107.028 376.555 106.912 376.44 106.912C376.363 106.912 376.401 107.067 376.555 107.375C376.671 107.606 376.902 108.185 376.902 108.3H376.786C376.555 108.3 376.555 108.3 376.671 108.879C376.786 109.457 376.671 109.457 375.977 109.11C375.631 109.11 375.4 108.763 375.4 108.763L375.169 108.994C375.053 109.341 375.053 110.035 375.284 110.151C375.361 110.151 375.477 110.151 375.631 110.151C375.978 109.92 376.093 110.151 376.902 110.614C377.711 111.423 377.942 111.423 378.173 111.076L378.404 110.845V111.192C378.404 111.423 378.404 111.654 378.519 111.654C378.597 111.654 378.828 111.654 379.213 111.654C379.559 111.654 379.906 111.654 380.022 111.654H380.368L380.137 112.117C380.022 112.348 379.906 112.811 379.906 113.042C379.906 113.351 379.983 113.544 380.137 113.621C380.253 113.621 380.599 113.621 381.061 113.621C381.639 113.621 381.755 113.621 381.87 113.621C382.217 113.852 382.217 114.199 381.986 114.662C381.87 114.893 381.87 115.124 381.87 115.124C381.87 115.124 382.217 115.124 382.448 115.356C383.141 115.703 383.488 115.703 383.719 115.356C383.95 115.009 384.643 114.083 384.643 113.968C384.528 113.968 384.412 113.968 383.603 112.927Z" fill="#B2B2B2"/>
<path d="M500.535 175.845C500.073 175.614 499.495 175.151 499.149 174.92C498.802 174.457 498.571 174.342 498.224 174.342C497.878 174.342 497.415 174.111 497.069 173.879C496.26 173.417 496.029 173.417 495.682 173.879L495.451 174.226L494.296 173.879C493.487 173.648 493.025 173.301 492.332 172.607C491.292 171.682 491.292 171.219 492.1 170.872C492.447 170.756 492.563 170.525 492.447 170.525C492.332 170.525 491.407 170.409 490.252 170.294C488.403 170.178 488.287 170.178 488.287 169.831C488.403 169.6 488.287 169.484 487.594 169.484C486.901 169.484 486.785 169.484 486.67 169.831C486.554 170.178 486.554 170.178 485.399 170.062H484.706V169.715H483.203C483.319 169.831 482.741 169.715 481.817 169.715C480.893 169.715 480.084 169.715 479.968 169.6C479.737 169.484 479.737 169.6 479.737 169.947C479.737 170.294 479.506 170.756 478.697 171.682C478.12 172.376 477.657 172.954 477.542 172.954H476.617C475.924 172.954 475.809 172.954 475.578 173.417C475.462 173.648 475 174.111 474.769 174.457C474.307 174.92 474.191 175.036 473.498 175.036C472.804 175.036 472.689 175.151 472.111 175.498C471.726 175.807 471.187 175.923 470.494 175.845C469.685 175.73 469.454 175.73 469.223 175.845C469.107 175.961 468.645 176.886 468.067 177.812C467.605 178.853 466.796 180.125 466.334 180.819C465.872 181.513 465.178 182.438 464.832 182.901C463.907 184.173 461.019 187.18 460.094 187.758C459.055 188.452 456.744 189.609 455.704 189.956C454.433 190.303 451.313 190.534 449.695 190.418C447.5 190.187 447.385 190.187 446.922 190.765C446.691 191.112 446.46 191.575 446.46 192.153V192.963C446.345 192.963 445.767 192.038 445.767 192.038C445.305 191.228 445.074 190.997 444.496 190.765C443.456 190.418 443.456 190.303 444.727 190.303C445.998 190.303 445.882 190.303 445.767 190.187C445.651 190.071 444.496 189.609 443.109 189.146C441.723 188.684 440.105 187.99 439.296 187.643C438.257 187.18 437.563 186.949 436.292 186.717C434.559 186.37 429.129 184.52 425.893 183.016C424.276 182.322 420.809 180.125 420.463 179.546C420.232 179.315 420 179.2 419.076 179.2C418.152 179.2 417.805 179.084 416.419 178.39C414.57 177.349 409.139 174.342 408.677 173.995C408.446 173.841 408.33 174.111 408.33 174.804V175.961L409.255 176.308C410.295 176.655 410.41 177.002 409.717 177.349C409.024 177.696 408.908 177.696 407.984 177.118C407.406 176.771 407.175 176.424 407.059 175.961C406.828 175.383 406.713 175.267 405.904 174.804C405.288 174.496 404.864 174.419 404.633 174.573C404.402 174.727 404.132 174.689 403.824 174.457L403.478 173.995L403.015 174.573C402.707 174.959 402.361 174.882 401.975 174.342C401.821 174.111 401.667 174.111 401.513 174.342C401.282 174.689 401.051 174.689 400.704 174.342C400.473 174.111 400.473 173.879 400.473 173.532C400.589 173.185 400.473 173.07 400.358 173.185C400.011 173.301 399.896 172.838 400.127 172.26C400.473 171.566 400.473 171.682 400.011 171.682C399.549 171.682 399.318 171.335 399.78 170.872L400.127 170.409L399.78 170.062L399.433 169.715L400.011 169.253C400.473 168.79 400.589 168.79 400.358 168.443C400.011 167.981 399.665 167.749 399.318 167.749C398.971 167.749 398.856 167.402 399.087 166.708C399.318 166.014 399.78 165.899 400.358 166.361C400.589 166.516 400.704 166.516 400.704 166.361C400.704 166.13 400.473 165.552 400.127 164.858C399.896 164.395 399.665 163.817 399.433 163.586V161.966C399.665 161.735 399.433 161.272 398.74 159.884C398.278 159.075 397.816 158.034 397.7 157.456C397.585 156.877 397.238 156.53 397.123 156.53C396.776 156.53 396.776 156.299 397.123 155.836C397.354 155.605 397.354 155.489 397.007 155.142C396.429 154.564 396.545 154.333 397.123 154.68C397.431 154.834 397.546 154.641 397.469 154.101C397.238 153.176 397.238 149.012 397.469 148.665C397.585 148.665 397.354 148.087 397.238 147.509C396.891 146.699 396.776 146.584 396.198 146.699H395.62L396.198 146.468C396.891 146.005 396.891 145.89 395.967 144.386L395.389 143.461L395.967 142.998C396.545 142.535 396.66 142.767 394.812 140.107C393.194 137.909 392.616 137.446 392.616 138.719C392.616 139.991 392.616 139.181 392.27 138.719C392.039 138.372 391.923 138.372 391.114 138.719C390.19 139.066 390.074 139.297 390.537 139.76C390.768 139.991 390.768 140.107 390.305 140.569L389.843 141.032L389.497 140.454C389.266 140.107 389.15 139.528 389.034 139.181C388.957 138.719 389.188 138.41 389.728 138.256C390.421 138.256 390.652 137.909 390.652 137.446C390.652 136.984 390.999 136.637 391.23 136.406C391.576 136.174 391.808 135.712 391.808 135.596C391.808 135.48 392.039 135.018 392.385 134.786C392.732 134.555 393.194 134.208 393.31 134.092C393.425 133.977 393.772 133.861 394.003 134.092C394.234 134.324 394.465 134.092 394.581 133.861C394.812 133.283 394.696 133.167 394.234 133.283C393.887 133.283 393.772 133.283 393.541 132.82C393.31 132.357 393.194 132.242 392.847 132.473C392.385 132.704 390.883 133.051 388.919 133.514C388.11 133.514 387.763 133.861 387.879 134.092C387.995 134.324 387.763 134.324 387.186 134.324C386.261 134.324 385.915 133.977 386.377 133.514C386.724 133.167 386.724 133.051 386.377 132.473C386.03 131.779 385.915 131.779 384.875 131.779C383.835 131.779 384.297 131.779 384.297 131.317C384.297 130.854 384.413 130.854 384.759 130.854C385.106 130.854 385.337 130.854 384.99 130.16C384.875 129.929 384.875 129.697 384.99 129.35C385.337 128.772 384.528 127.731 383.835 127.847C383.45 127.847 383.257 127.384 383.257 126.459C383.257 124.955 383.026 124.608 381.64 123.914C381.062 123.567 380.946 123.567 381.062 123.914C381.293 124.377 381.062 124.377 380.022 123.914C379.444 123.683 378.982 123.22 378.751 122.758C378.404 122.179 378.289 122.064 377.364 121.948C376.671 121.948 376.209 121.948 375.862 122.179C375.4 122.526 375.4 122.642 375.4 123.683C375.516 125.071 375.978 125.534 378.751 127.384C380.831 128.772 380.946 128.772 380.253 128.888H379.56L379.444 130.738C379.213 133.051 379.444 133.861 380.253 133.861C381.062 133.861 380.831 133.861 380.831 134.208C380.831 134.555 380.946 134.671 381.062 134.671C381.177 134.671 381.524 135.018 381.755 135.365C382.063 135.827 382.063 136.213 381.755 136.521C381.524 136.753 380.831 136.984 380.253 137.099H379.213L379.906 137.562L380.6 137.909H380.022L379.444 138.14H380.137C381.062 138.487 380.6 138.834 379.329 138.834H378.173L378.635 139.76C378.866 140.222 379.098 140.801 379.098 141.032C379.098 141.263 379.213 141.379 379.329 141.379C379.906 141.379 381.871 144.27 382.333 145.658C382.679 146.931 382.679 147.162 382.448 148.665L382.102 150.169L383.257 151.904C383.95 152.829 384.413 153.754 384.413 153.754C384.413 153.754 384.182 153.754 383.835 153.523C383.45 153.292 383.065 153.407 382.679 153.87C382.333 154.217 381.986 154.564 381.871 154.564C381.755 154.564 381.177 154.795 380.715 155.027C379.56 155.605 377.364 155.605 376.324 155.027C375.747 154.68 374.591 152.945 374.129 151.326C374.014 151.094 373.898 150.747 373.783 150.747C373.089 150.747 371.356 151.326 371.009 151.788C370.778 152.02 370.432 152.135 370.201 152.135C369.97 152.135 369.392 152.598 369.045 153.06C368.583 153.639 368.005 153.986 367.543 154.101C367.196 154.101 365.81 154.448 364.654 154.68C362.806 155.142 362.459 155.142 361.65 154.911L360.841 154.564L359.802 155.721C358.531 157.109 357.722 157.456 356.335 156.762C355.526 156.299 355.411 156.299 354.833 156.762C353.447 157.571 350.674 156.762 350.674 155.605C350.674 154.448 350.558 154.68 350.327 154.101C350.096 153.523 349.98 152.945 349.98 152.829C349.98 152.714 349.98 152.598 349.865 152.482C349.865 152.482 349.749 152.251 349.634 152.02C349.403 151.673 349.171 150.979 348.94 150.4C348.709 149.475 348.709 149.244 349.056 148.781C349.403 148.318 349.403 148.203 349.056 147.971C348.825 147.971 348.247 147.625 347.785 147.625C347.323 147.625 346.398 147.625 345.936 147.393C345.243 147.393 345.012 147.393 344.665 147.74C344.087 148.55 344.203 149.244 345.243 151.094C345.705 152.02 347.207 155.027 348.594 157.918C350.905 162.776 351.02 163.123 350.905 164.164C350.789 165.089 350.905 165.552 352.06 168.212C352.869 170.062 353.331 171.566 353.331 172.144C353.331 172.723 353.678 173.995 354.14 175.151C354.602 176.308 355.18 178.39 355.411 179.778L355.873 182.207L356.566 181.86C356.913 181.628 357.375 181.397 357.491 181.397C357.606 181.281 358.184 180.934 358.646 180.587C359.455 180.009 359.57 179.893 360.148 180.24C360.957 180.703 361.073 181.166 360.264 181.166C359.455 181.166 359.455 181.281 359.108 181.397C358.762 181.513 358.762 181.628 359.339 181.628C359.917 181.628 360.148 181.744 360.379 181.975C360.61 182.322 360.495 182.322 358.993 182.322C357.491 182.322 357.144 182.322 353.1 184.057C352.638 184.289 352.753 185.445 353.447 187.296C354.14 189.146 354.024 189.378 354.024 189.956C354.024 190.534 354.024 191.112 354.14 191.112C354.718 191.112 355.411 190.534 355.411 190.072C355.411 189.378 355.873 188.915 356.566 189.031C357.26 189.146 357.375 189.956 356.913 191.112C356.566 192.038 355.989 192.269 355.411 191.691C355.18 191.459 354.949 191.575 354.487 192.153C353.909 192.847 353.793 193.079 353.793 194.235V195.507L354.487 195.161C354.833 194.929 355.18 194.698 355.18 194.582C355.18 194.351 356.451 193.657 356.913 193.657C357.375 193.657 358.415 194.582 358.415 194.929C358.415 195.276 357.606 195.854 356.566 196.201C355.642 196.433 355.526 196.548 355.758 197.011C355.873 197.358 355.758 197.589 355.526 197.705C355.064 197.936 353.562 196.895 353.562 196.433C353.562 195.97 353.331 195.854 352.753 196.548C352.291 197.127 352.06 197.127 351.136 197.011C350.365 196.934 350.096 197.358 350.327 198.283C350.674 199.671 351.02 201.984 351.02 204.182V206.264L350.211 207.073C349.749 207.536 349.287 208.23 349.287 208.461C349.171 208.808 348.94 209.04 348.709 209.04C348.247 209.155 348.247 209.271 348.016 213.319C347.9 215.632 347.669 219.102 347.438 221.068C347.13 223.767 347.092 225.039 347.323 224.885L346.745 226.273H346.861C346.745 226.504 346.629 226.851 346.514 227.314C346.052 228.933 345.243 231.015 344.781 231.593C344.55 231.825 344.203 232.172 343.856 232.287C343.51 232.403 342.47 233.328 341.43 234.485C338.772 237.261 338.31 237.492 336.23 237.145C335.075 236.914 334.613 236.914 333.226 237.029C331.378 237.261 330.915 237.376 329.413 238.417C327.911 239.342 326.409 240.152 325.254 240.383C324.445 240.499 324.329 240.615 324.214 241.077C323.983 241.54 323.174 242.118 320.632 243.044C319.014 243.737 318.321 244.2 316.703 245.588C315.201 246.86 314.855 247.439 314.739 248.479C314.624 248.942 314.392 249.636 314.161 250.099L313.699 250.908L313.93 252.412C314.161 253.915 314.855 256.46 315.086 256.807C315.201 256.923 315.548 257.27 316.01 257.617C316.472 257.964 317.512 259.005 318.321 260.045C320.632 262.706 321.903 263.631 323.983 263.862C324.792 263.978 325.369 264.094 325.716 264.44C326.409 264.903 326.987 265.019 329.529 265.25H331.378C331.378 265.366 333.342 266.407 333.342 266.407C336.346 267.91 336.693 268.257 338.195 270.223C339.581 271.958 340.275 272.652 341.777 273.462C342.123 273.693 343.048 274.272 343.625 274.85C344.896 276.122 345.243 276.238 346.745 276.469C348.016 276.7 349.171 277.163 351.136 278.204C351.945 278.667 352.06 278.667 352.869 278.551C352.984 278.667 352.984 278.782 353.1 278.898L354.14 277.973L354.602 277.51C354.602 277.51 354.602 277.394 354.487 277.279C356.682 276.006 357.144 275.428 357.26 275.197C357.491 274.965 358.184 274.503 358.646 274.156C359.108 273.925 359.455 273.578 359.686 273.462C360.495 272.768 360.379 271.727 360.264 271.149L360.495 270.917C360.842 270.686 361.188 270.57 361.535 270.223C362.921 268.951 362.69 268.026 362.228 267.448C362.113 267.216 361.766 266.06 361.997 265.366C362.459 263.978 362.344 261.433 361.419 260.624L360.495 259.698C360.033 259.236 359.571 258.773 359.339 258.426H359.108C358.184 257.385 357.144 256.576 356.104 256.576C355.064 256.576 355.526 256.576 355.295 256.691V256.344C355.295 255.65 355.18 254.956 354.833 254.494L354.487 254.147C355.064 253.8 355.758 253.453 355.758 252.643C355.758 251.834 355.758 251.834 355.295 251.371L354.718 250.793L354.024 250.099L353.678 249.867C353.793 249.058 353.909 247.901 352.869 247.323C352.522 247.092 352.06 246.976 351.829 246.976C352.06 245.588 351.251 244.316 350.789 243.737C351.136 243.39 351.367 242.812 351.367 242.118C351.367 241.424 351.136 241.193 350.789 240.846H350.674C351.482 240.615 352.291 240.268 352.638 239.458C352.753 239.342 352.753 239.227 352.869 239.111C353.216 238.648 353.562 237.839 353.447 237.145C353.331 236.798 353.1 236.335 352.522 235.988C352.291 235.873 352.06 235.641 352.06 235.41C352.753 235.641 353.331 235.41 353.678 235.294C353.793 235.294 353.909 235.179 353.909 235.179C354.024 235.179 354.14 235.179 354.255 235.294C354.718 235.41 355.411 235.526 355.989 235.063C356.335 234.832 356.451 234.485 356.451 234.022C356.451 233.212 355.873 231.362 355.064 230.784L354.833 230.552C355.873 230.321 355.989 229.627 355.989 229.28C355.989 228.933 355.873 228.355 355.642 228.008C355.526 227.776 355.411 227.661 355.295 227.545C355.411 227.545 355.642 227.429 355.873 227.314C356.335 227.083 357.029 226.736 357.26 226.504C357.491 226.273 358.068 226.042 358.415 226.042C358.762 226.042 359.108 225.81 359.224 225.463C359.224 225.232 359.455 224.769 359.686 224.654C359.917 224.307 360.033 223.96 359.917 223.266C359.802 221.993 360.033 221.762 361.65 221.762C363.268 221.762 362.921 221.531 363.846 220.953C365.001 220.259 365.001 220.143 368.236 220.143H371.472L373.089 218.408C374.822 216.558 375.516 216.211 375.978 217.136C376.325 217.714 376.902 217.483 376.902 216.904C376.902 216.326 377.133 216.326 377.364 216.211C377.596 216.095 378.058 215.517 378.404 214.938C379.098 213.897 379.675 213.55 381.409 213.319H382.564C382.564 213.203 381.64 212.162 381.64 212.162C380.715 211.122 379.791 209.387 379.444 208.114C379.329 207.536 379.444 207.305 380.022 206.495C380.831 205.57 380.831 204.876 380.022 204.876C379.213 204.876 379.329 204.645 379.444 203.372C379.56 202.447 379.675 202.216 380.484 201.869C381.64 201.29 381.986 201.29 382.448 202.1C382.679 202.447 383.142 203.141 383.604 203.604C384.413 204.413 384.413 204.529 384.297 205.57V206.726C384.182 206.726 384.759 206.495 384.759 206.495C385.915 206.032 387.301 207.073 386.608 207.999C386.492 208.23 386.261 208.693 386.146 209.04C386.03 209.618 386.03 209.734 386.608 209.965C387.417 210.312 387.532 210.659 387.186 211.931C386.955 212.741 386.955 213.319 387.186 214.36C387.301 215.17 387.532 215.864 387.532 215.979C387.532 216.095 388.457 215.517 389.497 214.707C391.23 213.319 391.345 213.319 391.692 213.782C391.923 214.013 392.154 214.591 392.27 215.054C392.385 215.517 392.616 215.979 392.847 216.211C393.079 216.326 393.194 216.673 393.194 216.904C393.194 217.483 391.808 218.755 391.114 218.871C390.768 218.871 390.537 219.102 390.421 219.449C390.305 220.143 389.959 220.259 388.688 220.259C387.417 220.259 387.763 220.374 388.11 220.374C389.381 220.606 389.728 220.721 389.959 221.184C390.19 221.531 390.074 221.762 389.843 222.225C389.612 222.572 389.497 222.919 389.497 223.15C389.497 223.381 389.15 224.191 388.688 225.001C387.995 226.157 387.648 226.504 386.839 226.851C385.915 227.198 385.799 227.314 386.146 227.661C386.724 228.239 386.608 229.049 385.915 229.974C385.568 230.437 385.337 230.899 385.337 231.015C385.337 231.131 385.106 231.362 384.759 231.478H384.182C384.182 231.593 384.759 232.172 384.759 232.172C385.568 232.981 385.684 234.138 385.221 235.41C384.99 235.988 384.875 236.567 384.99 236.682C385.106 236.798 386.03 236.914 387.532 236.798C389.843 236.682 389.959 236.682 390.652 237.261C391.23 237.839 391.345 237.954 391.23 238.648C391.114 239.227 391.23 239.574 391.808 240.383C392.154 240.962 392.501 241.656 392.501 241.887C392.385 242.35 392.27 242.35 389.959 242.35C387.648 242.35 387.301 242.465 387.07 242.581C386.839 242.697 386.146 242.812 385.568 242.812C384.644 242.812 384.528 242.928 384.297 243.506C384.182 243.853 383.373 244.894 382.679 245.588C381.408 246.86 381.293 246.976 380.253 246.976H379.098V249.058C378.867 250.214 377.595 251.602 377.48 252.181C377.249 253.106 378.52 253.106 379.213 253.453C379.791 253.8 380.022 253.915 380.022 254.494C380.022 255.072 379.098 256.113 378.173 256.113C377.249 256.113 377.364 256.229 377.711 256.807C377.865 257.115 378.327 257.115 379.098 256.807C379.791 256.46 380.715 255.766 381.64 254.841C382.911 253.453 383.142 253.337 383.719 253.568C384.644 253.915 384.759 253.915 386.261 252.528C387.186 251.679 388.264 251.217 389.497 251.14C390.537 251.024 391.345 251.024 391.345 251.024C392.616 249.52 393.31 248.711 393.656 248.133L395.505 248.479L395.736 247.439C395.852 247.323 395.967 247.323 396.083 247.207C396.66 246.745 397.123 246.745 397.585 247.207C398.162 247.901 398.509 248.711 398.509 249.636V250.561L399.087 249.983C399.665 249.52 399.78 249.405 400.242 249.52C400.589 249.636 401.167 249.867 401.513 250.214C402.322 250.793 402.553 251.487 401.975 251.834C401.744 251.949 401.629 252.181 401.629 252.99V253.915H402.322C403.478 253.915 403.824 255.188 403.131 257.038L402.784 258.079L403.478 258.773L404.171 259.467H405.326C406.828 259.236 407.753 259.467 408.33 260.161C408.562 260.508 409.139 260.971 409.486 261.202C410.295 261.78 410.41 262.012 410.064 263.168C409.833 263.978 409.37 264.44 408.562 265.019C408.33 265.134 408.33 265.25 409.024 265.944C409.486 266.484 409.678 267.024 409.601 267.563V268.373C409.486 268.373 410.295 267.679 410.295 267.679C410.757 267.332 411.104 266.985 411.219 266.985C411.335 266.985 411.335 266.754 411.335 266.522C411.335 266.291 411.45 265.944 411.566 265.828C411.681 265.597 411.681 265.366 411.335 264.903C411.104 264.556 410.872 264.209 410.872 263.978C410.872 263.631 412.952 261.318 413.414 261.086C413.992 260.855 414.801 261.202 415.725 262.359C416.419 263.168 416.534 263.284 416.419 264.094C416.419 265.25 415.61 268.489 415.263 269.067C415.032 269.414 414.685 269.761 414.454 269.992C414.108 270.223 413.992 270.455 414.108 270.686C414.108 270.917 413.992 271.38 413.646 272.074C413.068 273.115 412.837 273.231 412.143 273.231C411.45 273.231 411.797 273.346 411.797 273.462C411.797 273.578 411.566 274.156 411.219 274.734C411.219 274.85 411.104 274.965 411.104 275.081C410.988 275.312 410.988 275.428 410.872 275.544C410.526 276.353 410.41 276.816 410.41 277.279C410.41 277.741 410.295 278.32 410.064 278.782C409.833 279.245 409.601 279.823 409.486 280.401C409.255 281.211 409.255 281.327 409.37 281.442C409.717 281.674 409.601 283.409 409.255 284.103C409.024 284.45 408.908 284.797 408.908 284.797C408.908 284.797 409.486 284.912 410.179 285.028C412.49 285.259 412.721 285.49 412.721 286.647C412.721 287.804 412.721 287.341 413.646 287.688C414.223 287.919 414.685 288.266 414.801 288.382C415.032 288.729 415.148 289.423 415.032 289.886C414.916 290.233 414.916 290.348 415.379 290.464C415.725 290.58 415.956 290.695 415.956 290.926C415.956 291.158 416.187 291.389 416.65 291.505C417.458 291.852 417.574 292.314 417.227 293.587C416.996 294.204 416.996 294.82 417.227 295.437C417.343 295.9 417.574 296.594 417.574 296.825C417.574 297.288 417.69 297.519 418.036 297.75C418.344 297.982 418.498 298.714 418.498 299.948C418.498 301.336 418.614 301.914 418.729 301.914C418.961 301.914 421.734 303.302 422.774 303.996C423.351 304.343 423.467 304.343 423.698 304.112C424.045 303.765 424.276 303.765 425.547 304.227C425.893 304.343 426.24 304.459 426.471 304.574C426.587 304.574 426.702 304.69 426.818 304.69C426.933 304.69 427.164 304.112 427.395 303.533C427.626 302.839 427.973 301.914 428.204 301.452C428.435 300.873 428.551 300.295 428.551 299.601C428.551 298.907 428.666 298.56 429.129 297.75C429.706 296.941 429.937 296.709 431.902 295.553C434.212 294.281 433.981 294.396 435.483 292.083C435.715 291.736 435.946 291.042 436.061 290.695C436.177 290.117 436.292 289.886 436.754 289.423C437.14 289.037 437.217 288.729 436.986 288.498C436.754 288.266 436.754 287.727 436.986 286.878C437.217 285.491 438.257 283.062 439.181 281.674C439.528 281.211 439.759 280.517 439.874 280.17C439.99 279.823 440.336 279.129 440.683 278.667C441.261 277.857 441.376 277.626 441.492 275.775C441.838 272.884 442.185 272.074 443.918 270.108C444.727 269.183 445.074 268.604 445.074 268.142C445.074 267.679 444.612 267.91 443.803 268.257C443.225 268.489 442.878 268.489 441.954 268.257C440.567 268.026 439.99 267.679 439.296 266.638C438.372 265.134 438.141 264.209 438.141 262.127V260.161H437.679C437.217 260.392 437.101 260.277 436.754 259.93C436.408 259.467 436.408 259.351 436.523 258.426C436.639 256.923 437.563 254.725 438.025 254.725C438.488 254.725 439.412 253.453 440.799 251.718C441.376 251.024 441.954 250.33 442.07 250.214C442.416 249.983 442.878 248.595 442.878 247.901C442.878 247.207 442.994 247.323 443.34 247.092C444.034 246.513 451.082 243.044 452.237 242.697C453.74 242.234 455.473 241.771 457.784 241.309C459.632 240.846 460.21 240.846 464.254 240.73C469.107 240.615 471.071 240.846 472.689 241.309C473.267 241.54 473.613 241.656 473.613 241.54C473.729 241.193 474.075 240.846 474.191 240.846C474.653 240.73 475.231 241.309 475.231 241.656C475.231 242.003 474.191 244.778 473.729 245.357L473.382 245.819L473.729 246.051C474.191 246.398 474.307 246.513 474.538 248.133C474.653 248.826 474.769 249.636 474.884 249.867L475.115 250.33L476.155 248.942C476.964 247.901 477.195 247.323 477.426 246.513C477.657 245.665 478.197 244.933 479.044 244.316C479.968 243.622 480.546 243.043 480.43 242.812L479.275 242.581C478.12 242.35 477.426 242.003 476.733 241.193C476.155 240.499 476.04 239.921 476.04 238.301V237.608H476.155L476.733 235.526C476.733 235.526 476.617 235.526 476.502 235.41C476.502 235.294 476.617 235.063 476.617 234.716C476.733 234.138 476.733 233.444 476.733 233.097C476.733 232.75 476.849 232.287 476.964 232.056C477.08 231.825 477.195 231.246 477.195 230.437C477.195 229.28 477.311 229.049 477.657 228.239C477.888 227.661 478.351 227.083 478.466 226.851C478.697 226.62 478.697 226.504 478.582 226.504C478.351 226.504 477.888 225.463 477.888 224.885C477.888 224.307 478.582 223.266 479.275 222.919C479.968 222.572 480.661 222.687 481.586 223.497C482.395 224.191 482.741 224.307 482.972 223.728C483.088 223.497 483.55 223.15 484.012 222.803C485.977 221.531 487.016 220.721 487.825 219.68C488.865 218.177 490.021 217.251 490.945 216.904C491.523 216.789 491.754 216.558 491.638 216.442C491.638 216.326 491.523 215.517 491.523 214.591C491.407 212.509 491.638 211.931 492.563 211.468C492.909 211.237 493.371 211.006 493.487 211.006C493.718 211.006 493.757 210.813 493.602 210.428C493.487 210.196 493.487 209.849 493.602 209.502V209.04C493.718 209.04 492.794 209.155 492.794 209.155C492.1 209.155 491.869 209.155 491.638 208.924C491.292 208.577 491.638 208.23 492.447 208.114C493.14 208.037 493.371 207.767 493.14 207.305C492.909 206.842 492.909 206.495 493.025 206.148C493.14 205.57 493.256 205.454 493.949 205.223C494.103 205.146 494.065 205.069 493.834 204.992C493.525 204.914 493.371 204.645 493.371 204.182C493.371 203.719 493.256 203.372 492.909 203.025C492.332 202.331 492.332 201.869 493.025 201.753C493.487 201.637 493.603 201.522 493.718 200.943C493.834 200.597 493.949 200.134 494.065 200.018C494.296 199.787 494.296 199.671 493.718 199.209C492.563 198.283 492.678 197.127 493.949 196.664C494.642 196.317 494.874 195.97 494.874 194.929C494.874 193.888 494.874 194.004 494.527 193.773C494.296 193.657 493.949 193.194 493.718 192.847C493.256 191.922 493.371 191.459 494.065 191.228C494.642 190.997 495.336 189.84 495.567 188.799C496.145 186.023 496.26 185.792 497.069 184.867C497.531 184.404 497.993 183.595 498.224 183.132C498.455 182.669 499.38 181.166 500.189 179.778C500.997 178.506 501.691 177.233 501.691 177.118C501.46 176.539 500.997 176.308 500.535 176.077V175.845ZM425.778 232.287C425.893 232.172 426.009 232.172 426.124 232.172C426.009 232.287 425.893 232.287 425.778 232.287Z" fill="#B2B2B2"/>
<path d="M423.697 303.88C423.466 304.112 423.351 304.112 422.773 303.765C421.733 303.071 418.96 301.683 418.729 301.683C418.498 301.683 418.498 301.105 418.498 299.717C418.498 298.329 418.498 297.866 418.036 297.519C417.689 297.288 417.574 297.056 417.574 296.594C417.574 296.131 417.343 295.669 417.227 295.206C416.996 294.589 416.996 293.972 417.227 293.355C417.574 292.083 417.458 291.62 416.649 291.273C416.187 291.158 415.956 290.927 415.956 290.695C415.956 290.464 415.725 290.348 415.378 290.233C414.916 290.117 414.916 290.001 415.032 289.654C415.147 289.192 415.032 288.498 414.801 288.151C414.685 288.035 414.223 287.688 413.645 287.457C412.721 287.11 412.721 286.994 412.721 286.416C412.721 285.259 412.49 285.028 410.179 284.797C409.485 284.681 408.908 284.565 408.908 284.565C408.908 284.565 409.023 284.218 409.254 283.871C409.601 283.177 409.717 281.442 409.37 281.211C409.254 281.095 409.254 280.98 409.485 280.17C409.601 279.592 409.832 279.014 410.063 278.551C410.294 278.088 410.41 277.51 410.41 277.047C410.41 276.585 410.525 276.122 410.872 275.312C410.872 275.197 410.756 275.081 410.872 274.965C410.988 274.85 411.103 274.734 411.219 274.503C411.565 273.809 411.796 273.231 411.796 273.231C411.796 273.115 411.912 272.999 412.143 272.999C412.836 272.999 413.067 272.884 413.645 271.843C413.992 271.149 414.107 270.686 414.107 270.455C413.992 270.223 414.107 269.992 414.454 269.761C414.685 269.53 415.032 269.183 415.263 268.836C415.609 268.257 416.418 265.019 416.418 263.862C416.534 263.053 416.418 262.937 415.725 262.127C414.801 260.971 413.992 260.624 413.414 260.855C412.952 261.086 410.872 263.4 410.872 263.747C410.872 264.094 411.103 264.325 411.334 264.672C411.681 265.134 411.681 265.366 411.565 265.597C411.45 265.713 411.334 266.06 411.334 266.291C411.334 266.522 411.334 266.754 411.219 266.754C411.103 266.754 410.756 267.101 410.294 267.448L409.485 268.142V267.332C409.64 266.792 409.485 266.252 409.023 265.713C408.33 265.019 408.33 264.903 408.561 264.787C409.37 264.209 409.832 263.747 410.063 262.937C410.41 261.78 410.294 261.549 409.485 260.971C409.139 260.739 408.561 260.277 408.33 259.93C407.752 259.236 406.828 259.005 405.326 259.12H404.17C404.17 259.236 403.477 258.542 403.477 258.542L402.784 257.848L403.131 256.807C403.824 254.956 403.477 253.684 402.322 253.684H401.628V252.759C401.628 251.949 401.744 251.718 401.975 251.602C402.553 251.255 402.322 250.561 401.513 249.983C401.166 249.636 400.589 249.405 400.242 249.289C399.78 249.173 399.664 249.289 399.086 249.752L398.509 250.33V249.405C398.509 248.48 398.162 247.67 397.584 246.976C397.122 246.513 396.66 246.513 396.082 246.976C395.967 247.092 395.851 247.092 395.736 247.207L395.505 248.248L393.656 247.901C393.309 248.48 392.616 249.289 391.345 250.793C391.345 250.793 390.536 250.793 389.496 250.908C388.264 250.985 387.185 251.448 386.261 252.296C384.759 253.684 384.643 253.684 383.719 253.337C383.141 253.106 382.91 253.222 381.639 254.609C380.715 255.535 379.79 256.229 379.097 256.576C378.327 256.884 377.865 256.884 377.711 256.576C377.364 255.997 377.48 255.882 378.173 255.882C378.866 255.882 380.022 255.072 380.022 254.262C380.022 253.453 379.79 253.569 379.213 253.222C378.519 252.875 377.248 252.875 377.48 251.949C377.595 251.371 378.866 249.983 378.982 248.826V246.745H380.253C381.293 246.745 381.408 246.629 382.679 245.357C383.372 244.663 384.181 243.622 384.297 243.275C384.528 242.697 384.643 242.581 385.568 242.581C386.492 242.581 386.839 242.465 387.07 242.35C387.301 242.234 388.456 242.118 389.958 242.118C392.269 242.118 392.385 242.118 392.5 241.656C392.5 241.424 392.154 240.73 391.807 240.152C391.229 239.342 391.114 238.995 391.229 238.417C391.345 237.723 391.229 237.608 390.652 237.029C389.958 236.451 389.843 236.451 387.532 236.567C386.03 236.682 385.106 236.567 384.99 236.451C384.874 236.335 384.99 235.757 385.221 235.179C385.683 233.906 385.568 232.75 384.759 231.94L384.181 231.362H384.759C385.106 231.131 385.337 230.899 385.337 230.784C385.337 230.668 385.568 230.205 385.914 229.743C386.608 228.817 386.723 228.008 386.145 227.429C385.799 227.083 385.914 226.967 386.839 226.62C387.648 226.273 387.994 225.926 388.687 224.769C389.15 223.96 389.496 223.15 389.496 222.919C389.496 222.687 389.612 222.34 389.843 221.993C390.074 221.531 390.19 221.3 389.958 220.953C389.727 220.49 389.381 220.374 388.11 220.143C387.763 220.143 388.11 220.027 388.687 220.027C389.958 220.027 390.305 219.912 390.421 219.218C390.536 218.871 390.767 218.639 391.114 218.639C391.807 218.524 393.194 217.251 393.194 216.673C393.194 216.095 393.078 216.095 392.847 215.979C392.616 215.748 392.385 215.285 392.269 214.823C392.154 214.36 391.923 213.782 391.692 213.55C391.345 213.088 391.229 213.088 389.496 214.476C388.456 215.285 387.532 215.864 387.532 215.748C387.532 215.632 387.301 214.938 387.185 214.129C386.954 213.088 386.954 212.509 387.185 211.7C387.532 210.428 387.416 210.081 386.608 209.734C386.03 209.502 386.03 209.387 386.145 208.808C386.261 208.461 386.492 207.999 386.608 207.767C387.301 206.842 385.914 205.801 384.759 206.264L384.181 206.495V205.339C384.412 204.298 384.412 204.182 383.603 203.372C383.141 202.91 382.679 202.216 382.448 201.869C381.986 201.059 381.639 201.059 380.484 201.637C379.675 201.984 379.559 202.216 379.444 203.141C379.328 204.413 379.328 204.645 380.022 204.645C380.715 204.645 380.83 205.339 380.022 206.264C379.444 207.073 379.328 207.305 379.444 207.883C379.79 209.155 380.715 210.89 381.639 211.931L382.564 212.972H381.408C379.675 213.319 379.097 213.666 378.404 214.707C378.057 215.285 377.595 215.864 377.364 215.979C377.133 216.095 376.902 216.442 376.902 216.673C376.902 217.251 376.324 217.483 375.977 216.904C375.515 215.979 374.822 216.326 373.089 218.177L371.471 219.912H368.236C365.001 219.912 365.001 220.027 363.845 220.721C362.921 221.3 362.343 221.531 361.65 221.531C360.032 221.531 359.801 221.762 359.917 223.034C360.032 223.728 359.917 224.075 359.686 224.422C359.455 224.538 359.223 225.001 359.223 225.232C359.108 225.579 358.877 225.81 358.415 225.81C357.952 225.81 357.49 226.042 357.259 226.273C357.028 226.504 356.335 226.851 355.873 227.083C355.642 227.198 355.411 227.314 355.295 227.314C355.411 227.429 355.526 227.545 355.642 227.776C355.873 228.123 355.988 228.817 355.988 229.049C355.988 229.396 355.873 230.09 354.833 230.321L355.064 230.552C355.873 231.131 356.45 232.981 356.45 233.791C356.45 234.6 356.335 234.6 355.988 234.832C355.411 235.294 354.717 235.179 354.255 235.063C354.14 234.947 354.024 234.947 353.908 234.947C353.908 234.947 353.793 235.063 353.677 235.063C353.331 235.179 352.753 235.41 352.06 235.179C352.06 235.41 352.291 235.641 352.522 235.757C353.1 236.104 353.331 236.567 353.446 236.914C353.562 237.608 353.215 238.417 352.869 238.88C352.753 238.995 352.753 239.111 352.637 239.227C352.291 240.036 351.482 240.383 350.673 240.499H350.789C351.135 240.962 351.366 241.424 351.366 241.887C351.366 242.581 351.135 243.159 350.789 243.506C351.251 244.084 352.06 245.357 351.829 246.745C352.06 246.745 352.522 246.86 352.869 247.092C353.908 247.67 353.793 248.826 353.677 249.636L354.024 249.867L354.717 250.561L355.295 251.14C355.757 251.602 355.757 252.065 355.757 252.412C355.757 253.222 355.064 253.569 354.486 253.915L354.833 254.262C355.179 254.725 355.295 255.419 355.295 256.113V256.46C355.526 256.344 355.757 256.344 356.104 256.344C357.144 256.344 358.184 257.154 359.108 258.079H359.339C359.57 258.542 360.032 259.005 360.494 259.467L361.419 260.392C362.343 261.202 362.459 263.747 361.997 265.134C361.765 265.828 362.112 266.985 362.228 267.216C362.69 267.795 362.921 268.72 361.534 269.992C361.188 270.339 360.841 270.455 360.494 270.686C360.494 270.686 360.379 270.802 360.263 270.802C360.379 271.496 360.494 272.537 359.686 273.231C359.455 273.346 359.108 273.693 358.646 273.925C358.184 274.272 357.49 274.734 357.259 274.965C357.144 275.197 356.681 275.775 354.486 277.047C354.602 277.163 354.602 277.279 354.602 277.279L354.14 277.741H354.717C355.295 277.741 356.104 277.973 357.837 278.667L360.263 279.592L361.303 280.748C361.881 281.442 363.499 283.062 364.885 284.565C367.774 287.572 368.583 288.498 369.276 289.886C370.894 293.008 371.702 298.907 371.125 303.765C370.778 307.003 369.276 314.058 368.467 316.14C368.352 316.372 368.352 316.487 368.236 316.603C367.889 316.603 367.543 316.603 367.427 316.719L367.774 318.222H367.658C367.581 317.991 367.273 318.453 366.734 319.61C365.925 321.345 364.423 323.658 363.73 324.699C363.499 325.046 362.921 325.624 362.459 325.971C361.997 326.318 361.65 326.665 361.534 326.897C361.419 327.012 361.303 327.938 361.303 328.863C361.188 329.904 361.072 330.713 360.957 330.945C360.841 331.176 360.379 331.639 359.917 331.986C358.646 333.027 356.566 335.108 356.566 335.34C356.566 335.687 357.144 336.034 357.837 336.381C358.184 336.496 358.53 336.728 358.53 336.728C358.53 336.843 357.837 337.075 357.49 337.075C357.144 337.075 357.259 337.19 357.144 337.422C356.797 338 356.681 337.884 356.797 337.075C356.913 336.728 356.913 336.381 356.797 336.265C356.681 336.149 356.104 336.496 355.526 337.075C355.179 337.306 354.602 337.769 354.255 338.116C353.908 338.347 353.1 339.156 352.637 339.85C352.06 340.544 351.135 341.585 350.558 342.164C349.633 343.205 349.518 343.32 348.709 343.552C348.247 343.667 347.9 343.898 347.785 343.898C346.976 344.592 346.976 345.749 348.016 347.715L348.593 348.756H349.518C350.327 348.756 350.442 348.872 350.904 349.219C351.251 349.45 351.482 349.681 351.598 349.681C351.713 349.681 351.713 349.566 351.829 349.334C351.944 349.103 352.06 348.988 352.06 348.988C352.06 348.988 352.869 348.872 353.793 348.756C354.717 348.641 355.41 348.525 355.642 348.525C355.988 348.409 356.104 347.831 356.104 346.906C356.104 345.98 356.104 346.212 355.757 345.98C355.411 345.633 355.295 345.749 355.064 346.212C354.833 346.79 354.717 346.79 354.486 346.096C354.14 345.402 354.139 345.286 354.371 344.708C354.717 344.13 355.41 343.436 356.219 343.205C357.375 342.742 357.952 342.973 358.53 344.014C358.992 344.708 358.992 345.171 358.53 345.749C356.797 348.294 356.566 348.756 356.566 349.45C356.566 350.144 356.566 349.913 357.028 350.144C357.606 350.491 357.721 350.954 357.259 351.416C356.797 351.879 357.144 351.879 357.837 351.995C358.299 352.11 358.415 352.11 358.646 352.689C358.761 353.036 358.992 353.267 358.992 353.267C359.108 353.267 359.686 352.804 360.379 352.226C361.303 351.416 362.228 350.954 363.268 350.607C364.539 350.144 365.347 350.26 366.618 350.722C368.236 351.301 370.431 352.457 370.662 352.804C370.778 353.151 370.662 353.961 370.431 354.539C370.2 354.886 369.854 356.968 369.854 357.431C369.854 357.893 370.085 357.778 370.316 357.893C370.778 358.125 370.778 358.24 370.894 358.934C370.894 359.397 371.009 359.975 371.125 360.322C371.279 360.708 371.587 361.016 372.049 361.247C372.511 361.479 372.973 361.594 373.089 361.594C373.898 361.71 374.822 361.363 375.977 360.322L376.786 359.628H377.942C378.982 359.628 379.097 359.628 379.559 359.281C379.79 359.05 380.599 358.356 381.408 357.546C382.679 356.274 382.795 356.158 383.488 355.927C384.412 355.696 385.337 355.002 387.301 353.267C388.918 351.879 389.496 351.532 390.536 350.954C390.998 350.722 391.692 350.375 391.923 350.144C392.154 349.913 392.616 349.681 393.078 349.566C393.771 349.335 394.118 348.988 395.273 347.6C396.429 346.212 396.082 346.443 396.313 345.749C396.429 345.402 396.544 345.055 396.776 344.939C397.238 344.592 398.393 344.014 398.971 343.783C399.318 343.667 399.549 343.552 399.664 343.552C399.78 343.436 400.011 342.973 400.357 342.395C401.166 340.776 401.744 339.966 402.784 339.041C403.4 338.501 403.785 337.923 403.939 337.306C404.17 336.496 404.748 334.993 406.25 331.407C407.059 329.441 407.752 328.631 408.908 328.169C409.254 328.053 409.717 327.822 409.717 327.706C409.717 327.591 409.832 327.244 409.832 326.781C409.948 326.087 409.948 325.971 410.294 325.509C410.872 324.815 410.988 324.468 411.103 323.658C411.219 323.195 411.334 322.617 411.45 322.27L411.681 321.576H411.103L412.605 321.345V320.767C412.605 320.42 412.721 320.073 412.605 319.61V319.263C412.952 318.8 413.645 317.875 414.454 316.95C415.147 316.14 415.84 315.446 415.84 315.331C415.84 314.984 417.805 312.67 418.382 312.323C418.729 312.092 419.076 311.745 419.307 311.051C419.653 310.01 419.885 309.779 421.04 308.969C422.195 308.044 422.542 307.928 424.044 307.697L425.431 307.466L425.662 306.772C425.546 306.887 425.431 306.425 425.084 306.078L426.008 304.343C425.777 304.227 425.431 304.112 425.084 303.996C424.275 303.533 424.044 303.533 423.697 303.88Z" fill="#E9510E"/>
<path d="M97.1687 633.394C97.1687 633.394 96.8221 633.394 96.7065 633.163C96.4754 633.163 96.4754 632.931 96.4754 632.237C96.4754 631.544 96.4754 631.428 96.7065 631.081C97.0532 630.503 97.0532 630.387 96.7065 630.156C96.0133 629.924 95.8977 630.156 96.0132 631.081V632.237C96.0132 632.469 95.8592 632.585 95.5511 632.585C94.8578 632.585 94.7423 632.585 94.6267 632.931C94.6267 633.278 94.2801 633.51 94.1645 633.51C94.049 633.51 94.1645 633.51 94.1645 632.931C94.1645 632.353 94.1645 632.353 94.1645 632.237C94.1645 632.122 91.7381 631.312 91.1604 631.312C90.5826 631.312 90.6982 631.312 90.5826 630.965C90.5826 630.965 90.3516 630.618 90.236 630.503C89.8894 630.156 89.6583 630.156 88.965 630.85C88.5028 631.197 88.1562 631.544 87.9251 631.544C87.694 631.544 87.3474 631.891 87.0008 632.006C86.423 632.469 86.1919 632.469 86.423 632.006C86.7697 631.544 87.694 630.503 88.0407 630.387C88.2717 630.387 88.5028 630.156 88.5028 630.04C88.5028 630.04 88.5028 629.809 88.2717 629.346C87.8096 628.652 87.8096 628.305 88.2717 628.305C88.7339 628.305 89.0806 628.305 89.1961 627.958C89.1961 627.958 89.1961 627.727 89.1961 627.495C89.1961 627.148 89.4272 627.033 89.4272 627.264C89.4272 627.495 89.4272 627.611 89.7738 627.958C90.0049 628.421 90.0049 628.536 89.7738 628.768C89.5427 628.999 89.7738 628.999 89.7738 629.23C89.7738 629.462 90.4671 629.577 90.8137 629.577C91.1604 629.577 91.1604 629.577 91.0448 629.346C91.0448 629.346 91.507 629.346 92.3158 629.346C93.1246 629.346 93.7024 629.346 94.2801 629.577C94.6267 629.577 94.9733 629.809 94.9733 629.577V629.23C94.9733 629.23 94.9733 628.883 94.9733 628.768C95.2044 628.536 95.2044 628.421 95.0889 628.421C94.9734 628.421 94.7423 628.421 94.6267 628.421H94.2801L94.6267 628.074C94.8578 627.842 94.9733 627.611 94.9733 627.611C94.9733 627.611 94.9733 627.611 94.3956 627.611H93.8179C93.8179 627.611 93.8179 627.611 94.049 627.38C94.2801 627.149 94.2801 627.033 94.049 626.686C93.8179 626.339 93.7024 626.339 93.5868 626.686C93.5868 626.686 93.3557 626.686 93.2402 626.686C93.1246 626.686 92.8935 626.686 92.778 626.686C92.4314 626.686 92.0847 626.686 92.0847 626.455C92.0847 626.223 92.0847 626.223 92.3158 625.992C92.5469 625.529 92.3158 625.414 91.9692 625.414C91.507 625.414 91.2759 625.182 90.6982 624.488C90.3516 624.141 90.236 624.026 90.0049 623.91C89.3117 623.91 88.7339 623.1 88.8495 622.638C88.8495 622.638 88.8495 622.406 88.6184 622.175C88.2717 621.828 88.1562 621.481 88.1562 620.787C88.1562 620.093 88.1562 620.209 88.1562 620.093C88.1562 619.862 88.1562 619.746 87.694 619.631C87.4629 619.631 86.5386 619.052 85.7298 618.59C84.8054 618.127 83.9966 617.664 83.881 617.664C83.727 617.664 83.5344 617.78 83.3033 618.011C83.0722 618.243 82.8411 618.474 82.6101 618.59L82.2634 618.821L81.8012 618.474C81.108 618.011 80.7613 617.896 80.1836 618.127C79.9525 618.127 79.6059 618.358 79.4903 618.358C79.2593 618.358 79.1437 618.59 78.9126 618.821C78.9126 619.052 78.566 619.284 78.4504 619.284C78.2193 619.284 78.2193 619.284 78.2193 619.978C78.2193 620.556 78.2193 620.672 77.8727 620.787H77.6416V621.597C77.6416 621.944 77.6416 622.406 77.8727 622.753C78.0268 623.216 78.0268 623.447 77.8727 623.447H77.6416C77.6416 623.447 77.6416 623.679 77.9883 623.91C78.4504 624.488 78.566 624.835 78.566 625.182C78.566 625.529 78.566 625.529 78.7971 625.761C79.1437 626.108 79.2593 626.455 79.3748 627.033C79.3748 627.842 79.3748 627.958 79.837 628.189L80.0681 628.421V629.577C80.0681 630.85 80.0681 631.197 79.6059 631.544C79.1437 632.006 78.1038 632.469 77.295 632.7C77.0639 632.7 76.7173 632.7 76.6017 632.931H76.2551V633.51C76.2551 634.435 76.2551 634.898 77.0639 635.476L77.7572 636.17C78.1038 636.401 78.1038 636.517 77.7572 636.864C77.7572 637.095 77.4105 637.211 77.4105 637.211C77.4105 637.211 77.0639 637.211 76.7173 636.864C75.9085 636.401 75.6774 636.401 75.3307 636.517C75.0996 636.517 74.8685 636.517 74.6375 636.517C74.2908 636.517 74.0597 636.748 73.7131 637.558C73.2509 638.483 72.9043 638.946 72.5577 639.061C71.9799 639.293 72.0955 639.64 72.7887 639.987C73.0198 639.987 73.2509 640.218 73.2509 640.334C73.2509 640.449 73.2509 640.681 73.0198 641.028C73.0198 641.259 72.7887 641.837 72.6732 642.3C72.6732 643.109 72.3266 643.572 71.9799 643.688C71.9799 643.688 71.5177 644.035 71.1711 644.382C70.786 644.767 70.4393 644.999 70.1312 645.076C69.9001 645.076 69.5535 645.076 69.4379 645.076C69.2069 645.076 68.7447 645.77 68.5136 646.232C67.8203 647.736 67.8203 647.967 67.8203 648.199C67.8203 648.43 67.8203 648.545 68.2825 648.661C68.6291 648.892 68.7447 648.892 69.5535 648.892C70.3623 648.892 70.5934 648.892 70.8245 648.892C71.1711 648.892 71.9799 649.124 72.211 648.892C72.211 648.892 72.5576 648.546 72.7887 648.199C73.2509 647.505 73.6746 647.389 74.0597 647.852C74.5219 648.43 74.6375 648.43 75.2152 647.852C75.6774 647.389 76.024 646.811 76.024 646.232V645.885H75.6774C75.4463 645.885 75.2922 646.001 75.2152 646.232V646.579H72.9043C72.211 646.579 72.3266 646.579 72.9043 646.232C73.2509 646.232 73.5976 645.885 73.8286 645.654C73.8286 645.423 74.2908 645.307 74.4064 645.191C74.6375 645.191 74.753 645.191 74.753 644.844C74.753 644.266 75.0996 644.266 75.5618 644.613C75.9085 644.844 76.024 644.844 76.3706 644.613C76.7173 644.382 76.7173 643.919 76.3706 643.572V643.341L76.7173 642.994C77.1794 642.531 77.4105 642.416 77.7572 642.647C77.9883 642.647 78.1423 642.801 78.2193 643.109C78.3349 643.456 78.566 643.919 78.7971 643.919C78.7971 643.919 79.0282 643.919 79.1437 643.919C79.4903 643.688 79.9525 643.688 80.4147 643.919C80.9924 644.266 81.8012 644.382 82.1479 644.382C82.4945 644.382 82.6101 644.382 82.8411 644.15C83.0722 643.919 83.65 643.803 84.1121 643.688C84.6899 643.456 85.152 643.225 85.3831 643.225C85.6142 643.225 85.9609 642.763 86.3075 642.3C87.0008 641.49 87.1163 641.375 87.5785 641.49C87.9251 641.722 88.0407 641.722 88.6184 641.49C89.4272 641.028 89.5427 641.028 90.236 641.143C90.9293 641.259 91.2759 641.143 91.8536 640.796C92.5469 640.218 92.4314 640.218 93.3557 640.565C94.1645 640.912 94.8578 641.028 94.8578 640.912L94.6267 640.681C94.3956 640.449 94.3956 640.334 94.6267 640.334C95.2044 640.334 95.4355 640.334 95.32 639.987C95.32 639.755 95.32 639.524 95.0889 639.293C94.8578 639.061 95.32 638.83 95.7822 638.83C96.2443 638.83 96.2443 638.83 96.4754 639.177C96.4754 639.177 96.9376 639.755 97.0532 639.987L97.2842 640.449L97.5153 639.987C97.7464 639.524 97.7464 638.946 97.5153 638.714C97.5153 638.714 97.1687 638.714 96.8221 638.483C96.2443 638.252 96.0133 638.136 96.2443 637.789C96.2443 637.558 96.591 637.558 96.9376 637.789C96.9376 637.789 97.2842 637.789 97.3998 637.789C97.6309 637.789 97.6309 637.789 97.6309 637.558C97.6309 637.327 97.6309 636.864 97.6309 636.286C97.6309 635.707 97.6309 635.013 97.6309 634.782C97.6309 634.319 97.6309 634.204 97.3998 634.088C96.591 633.394 96.4754 633.278 96.3599 633.278L97.1687 633.394Z" fill="#B2B2B2"/>
<path d="M327.334 374.664C327.911 371.888 326.178 372.698 323.983 369.112C323.521 368.418 322.943 367.493 322.712 367.03C322.25 366.221 321.788 365.758 320.285 364.486C319.592 363.908 318.321 362.404 317.743 361.363C317.281 360.554 316.819 359.281 316.472 357.662C316.126 356.274 316.126 356.158 316.126 352.689C316.126 349.219 316.126 349.103 316.357 348.756C316.819 347.831 317.166 347.715 318.783 347.137C319.361 346.906 320.054 346.674 320.17 346.559C320.517 346.327 322.596 344.13 322.943 343.552C323.174 343.205 323.29 343.089 323.059 342.742C322.827 342.164 322.25 342.048 320.863 342.048C319.477 342.048 319.014 342.279 318.437 342.395C317.859 342.511 316.472 342.742 315.433 342.742C313.353 342.858 312.544 342.973 312.197 343.32C311.504 343.899 310.811 344.246 310.117 344.477C309.655 344.593 308.846 345.055 308.269 345.286C307.229 345.749 306.651 345.865 306.42 345.633C306.189 345.402 306.305 344.477 306.536 343.667C307.113 341.932 307.807 340.313 308.384 339.157C308.731 338.578 308.962 337.884 308.962 337.653C309.078 337.306 308.962 337.19 308.731 336.843C308.5 336.612 308.269 336.496 308.269 336.612C308.153 336.612 307.922 337.075 307.576 337.653C306.998 338.81 306.189 339.966 305.38 340.776C305.496 340.66 305.496 340.429 305.496 340.313C305.496 339.851 305.38 339.504 305.034 339.157L304.109 338.347L302.954 339.619C302.723 339.504 302.492 339.504 302.145 339.619C301.567 339.619 301.336 339.619 301.105 339.388L300.758 339.041L300.181 339.504C299.95 339.735 299.256 340.197 298.794 340.544C298.332 340.891 297.523 341.701 297.176 342.164C296.599 342.858 296.137 343.32 295.443 343.667C294.75 344.13 294.403 344.361 294.172 344.708C294.057 344.939 293.71 345.518 293.363 346.096C292.786 346.906 292.67 346.906 292.324 346.906H291.746L290.706 346.096C290.706 345.98 290.244 345.749 290.244 345.749L289.782 345.518C289.666 345.633 289.666 345.749 289.666 345.865V345.633C289.666 345.633 289.551 345.518 289.435 345.518C288.973 345.518 288.511 345.171 288.395 344.824C288.28 344.593 288.28 344.361 288.28 344.246C288.395 344.13 288.511 344.014 288.742 344.014C289.088 343.899 289.319 343.783 289.204 343.667C289.204 343.59 289.127 343.552 288.973 343.552C288.626 343.552 287.933 342.626 287.702 341.585C287.355 340.429 287.124 340.082 286.315 339.735C285.969 339.619 285.738 339.272 285.622 339.157C285.545 339.002 285.661 338.771 285.969 338.463L286.546 338L286.315 337.075C286.2 336.265 285.969 336.034 285.622 335.687C285.16 335.34 285.044 335.108 285.506 334.183C285.969 333.258 285.969 333.142 285.853 332.911C285.738 332.795 285.622 332.68 285.391 332.68C285.16 332.68 285.044 332.564 285.044 332.564C285.044 332.333 285.622 331.639 285.853 331.639C286.084 331.639 286.315 331.407 286.431 331.06C286.546 330.829 286.777 330.482 287.124 330.366C287.355 330.251 287.702 330.019 287.586 329.904C287.586 329.788 287.471 329.672 287.124 329.672C286.777 329.672 286.893 329.672 286.893 329.557C286.777 329.441 286.893 328.979 287.009 328.169C287.124 327.591 287.124 327.128 287.009 326.781C286.893 326.434 286.893 326.203 287.009 325.971C287.24 325.624 287.24 325.277 287.124 325.046C287.009 324.815 286.662 324.583 286.2 324.583C285.506 324.468 285.275 323.889 285.275 322.617C285.275 321.345 285.275 321.576 284.813 321.461C284.582 321.345 284.12 321.345 283.658 321.229H282.849V322.155C282.849 322.617 282.772 322.887 282.618 322.964C282.387 322.964 282.04 322.733 281.809 322.27L281.578 321.808L281.231 322.27C281.116 322.386 280.885 322.733 280.769 322.964C280.538 323.427 280.191 323.543 278.343 323.311C277.418 323.234 276.802 323.003 276.494 322.617C276.147 322.27 275.339 321.345 274.53 320.535C273.028 318.916 272.797 318.685 272.334 317.181C272.103 316.603 271.872 315.793 271.641 315.562C271.41 315.331 271.179 314.984 271.294 314.752C271.294 314.752 271.294 314.637 271.526 314.637C271.757 314.521 271.988 314.174 272.219 313.249C272.681 311.861 273.721 309.779 274.183 309.201C274.645 308.622 275.339 308.507 277.187 308.622C278.805 308.738 282.271 309.201 283.427 309.548C283.658 309.663 284.351 310.01 284.929 310.242C285.699 310.627 286.123 310.781 286.2 310.704C286.084 310.242 284.235 309.316 283.427 308.969C281 308.275 279.036 307.929 275.107 307.813C271.063 307.582 270.948 307.697 269.215 309.085C268.521 309.663 267.713 310.357 267.366 310.473L266.904 310.82C266.673 310.82 266.442 310.704 266.095 310.704V311.861H266.21C265.517 312.092 264.824 312.555 263.437 313.596C262.166 314.521 260.664 315.909 260.202 316.487C259.624 317.066 258.007 318.454 256.505 319.494C252.923 322.039 251.305 323.543 250.265 325.509C249.456 327.012 249.456 327.938 249.341 335.34C249.341 339.85 249.11 344.94 248.763 346.559C248.301 349.219 248.07 349.797 246.452 351.532C245.528 352.573 243.564 355.464 242.177 357.778C240.213 361.247 239.289 362.288 237.555 363.561C236.4 364.37 234.782 365.643 234.205 366.221C233.049 367.262 232.702 367.377 229.121 367.377C225.539 367.377 225.077 367.609 224.845 367.84C224.614 368.071 224.383 369.575 224.383 371.194C224.383 372.813 224.152 374.317 223.459 375.242C222.997 375.936 222.535 376.977 222.535 377.555C222.535 378.134 221.957 379.637 221.379 380.794C219.761 383.57 218.837 386.808 218.837 389.584C218.837 392.36 218.375 392.707 214.909 400.225C211.096 408.205 210.749 408.668 207.283 412.485C205.318 414.682 202.776 417.689 201.852 419.193C200.465 421.275 199.079 422.663 196.075 424.976C190.875 428.908 188.911 430.065 186.369 430.412C184.751 430.643 183.943 431.106 182.44 432.494C181.401 433.535 179.898 434.46 178.859 434.691C177.588 435.038 176.894 435.501 176.085 436.889C175.508 437.814 172.85 440.705 170.424 443.134C165.918 447.645 165.455 447.992 160.949 449.264C160.256 449.496 159.332 450.19 158.869 450.999C156.443 454.932 155.403 456.204 154.132 456.898C153.323 457.245 152.63 457.823 152.514 458.054C152.399 458.286 151.937 458.401 151.474 458.286C151.012 458.054 150.319 458.401 149.51 459.211C148.586 460.136 147.661 460.483 146.044 460.599C144.542 460.715 143.502 461.177 142.693 461.871C142 462.449 140.96 462.912 140.498 462.912C138.88 462.912 137.378 463.837 133.103 467.885C130.907 469.967 128.019 472.28 126.863 473.09C125.592 473.9 123.859 475.288 122.819 476.097C119.931 478.526 114.616 479.798 113.345 478.295C112.882 477.832 112.536 477.832 110.456 478.757C108.954 479.336 107.221 479.798 105.834 479.798C103.87 479.798 103.639 479.914 102.715 481.186C102.252 481.88 101.79 482.69 101.79 482.921C101.79 483.152 101.212 483.846 100.519 484.425C99.8259 485.003 99.2482 485.813 99.2482 486.16C99.2482 486.507 98.5549 487.201 97.7461 487.779C96.9373 488.357 95.5508 489.282 94.6264 489.976C93.702 490.67 92.8932 491.364 92.5466 491.48C92.2 491.364 91.7378 491.249 90.929 491.249V493.33H91.7378C91.7378 493.33 91.7378 493.446 91.9689 493.446C91.9689 493.562 92.2 493.562 92.2 493.677C92.5466 493.909 92.8932 494.14 93.471 494.256C93.471 494.371 93.2399 494.603 93.1243 494.834L92.7777 495.759H90.929C90.929 495.644 89.0803 495.528 89.0803 495.528V496.106C89.3113 496.569 89.0802 497.032 88.9647 497.61C88.6181 498.42 88.5025 498.535 87.4626 498.766C85.9605 499.113 84.2274 500.848 83.6496 502.236C83.4186 502.815 83.0719 503.393 82.8408 503.624C82.3787 504.087 82.2631 504.087 82.2631 506.747V509.407H83.0719C83.5341 509.638 84.1118 509.87 84.4585 510.101C84.8051 510.332 85.1517 510.564 85.3828 510.564C85.845 510.564 86.0761 511.373 86.0761 512.53C86.0761 513.687 85.7295 513.687 85.4984 512.877C85.4984 512.299 83.5341 510.448 82.6097 509.985C82.1476 509.754 81.5698 509.291 81.3387 509.06C81.1077 508.829 80.5299 508.482 80.1833 508.482C79.7211 508.405 79.413 508.559 79.2589 508.945C79.2589 509.407 78.9123 509.523 78.5657 509.523C78.219 509.523 77.8724 509.754 77.6413 509.985C77.2947 510.217 76.6014 510.679 76.1392 510.911C75.5615 511.142 75.0993 511.489 75.0993 511.489C75.0993 511.605 75.3304 511.952 75.677 512.299C76.717 513.455 76.1392 513.802 74.8682 512.877C74.5216 512.646 74.0594 512.414 73.8283 512.414C73.2506 512.414 72.4418 513.571 72.4418 514.265C72.4418 514.959 73.0195 516 73.4817 516.115C74.175 516.231 75.3304 518.544 74.6371 518.544C73.9439 518.544 74.2905 518.082 74.0594 517.619C73.5972 516.578 73.1351 516.231 71.633 516.115C70.7086 516 70.4775 516.115 70.0154 516.462L69.5532 516.925L69.8998 517.735C70.1309 518.197 70.4775 518.66 70.8242 518.891C71.1708 519.123 71.2863 519.47 71.2863 519.585C71.2863 519.701 70.9397 520.395 70.4775 520.973C70.0154 521.551 69.6687 522.13 69.6687 522.245C69.6687 522.361 69.8998 522.592 70.2464 522.824C71.0553 523.518 70.7086 523.633 69.7843 522.939C68.8599 522.245 68.8599 521.783 69.7843 520.51L70.5931 519.47L70.1309 519.123C69.8998 518.891 69.2065 518.544 68.7444 518.313L67.9355 517.85L66.6646 518.776C65.3936 519.585 65.1625 519.816 64.4692 520.163C63.6604 520.51 63.6604 521.204 64.7003 523.518C65.1625 524.79 65.6247 525.715 65.6247 525.831C65.6247 525.946 65.6246 525.946 65.278 525.946C64.8158 525.946 64.9314 526.178 65.8557 527.103C67.2423 528.491 67.4734 529.185 66.3179 528.607C65.9713 528.375 65.8557 528.491 65.278 529.069C64.8158 529.648 64.7003 529.648 64.7003 529.301C64.7003 528.954 64.7003 528.722 65.0469 528.375C65.5091 527.566 65.3936 527.334 64.5847 527.103L63.8915 526.756V525.599C64.1226 524.559 64.1226 524.327 63.5448 523.633C63.1982 523.171 62.9671 522.592 62.9671 522.361C62.9671 522.13 62.9671 521.898 62.736 521.783C62.2739 521.551 60.5407 522.824 59.8474 523.865C59.5008 524.443 58.923 525.137 58.5764 525.484C58.2298 525.831 57.7676 526.409 57.6521 526.756C57.5365 527.103 56.8432 527.681 56.2655 528.028C55.6878 528.375 55.1101 528.838 55.1101 528.838C55.1101 529.301 55.8033 529.879 56.4966 529.879C57.1899 529.879 58.1142 530.226 58.692 530.92C58.9231 531.267 59.3852 531.382 59.8474 531.382C60.7718 531.382 61.6961 531.729 61.5806 531.961C61.3495 532.308 59.1541 531.845 57.9987 531.151C57.3054 530.804 56.4966 530.457 56.0344 530.457C55.5723 530.341 55.1101 530.11 54.9945 529.995C54.7634 529.648 54.6479 529.648 54.1857 530.226C53.3769 531.151 53.608 533.117 54.7634 533.811C54.9945 533.927 55.8033 534.158 56.4966 534.274C58.4609 534.621 58.5764 534.852 56.8432 534.852H55.3412V535.43C55.3412 536.009 55.8033 536.703 56.15 536.703C56.4966 536.703 56.3811 536.818 56.3811 536.934C56.3811 537.397 55.8033 537.165 55.2256 536.471C54.879 536.009 54.6479 535.546 54.6479 535.084C54.6479 534.621 54.5323 534.39 54.3013 534.274C54.1857 534.158 53.7235 533.696 53.4924 533.233C53.2614 532.77 52.9147 532.308 52.6836 532.308C52.4525 532.308 52.1059 532.77 51.6437 533.349L50.8349 534.39L51.4126 534.852C51.7593 535.084 52.337 535.893 52.9147 536.703C53.8391 538.091 53.9546 538.091 54.7634 538.206H55.6878C55.6878 538.322 54.7634 538.669 54.7634 538.669L53.8391 539.016L53.1458 538.206C52.7992 537.744 52.2214 536.934 51.8748 536.356C51.5282 535.777 51.066 535.315 50.7194 535.199C50.1416 534.968 50.0261 535.084 49.4484 535.893C48.7551 536.703 48.7551 536.818 49.1017 537.165C49.3328 537.628 49.3328 537.744 49.1017 538.322C48.6396 539.363 48.6396 539.941 49.3328 541.213C49.6795 541.792 49.9106 542.486 49.9106 542.717C49.9106 542.948 50.0261 543.295 50.1416 543.527C50.3727 543.874 50.4883 543.874 51.2971 543.758C52.9147 543.527 54.1857 543.18 54.4168 542.948C54.6479 542.717 54.879 542.717 55.1101 542.717C55.3412 542.717 55.6878 542.486 55.8033 542.254C55.9189 542.023 56.15 541.907 56.2655 541.907C56.6122 542.139 56.4966 542.37 55.9189 542.948C55.4567 543.527 55.4567 543.642 55.6878 544.221C55.9189 544.568 56.2655 544.915 56.6122 545.03C57.421 545.262 57.421 545.609 56.6122 545.609C55.8033 545.609 55.9189 545.493 55.5723 544.799L55.1101 543.989H53.608C51.7593 544.221 50.9505 544.452 50.4883 545.03C49.9106 545.609 50.2572 546.187 51.4126 546.765C51.9904 547.112 52.6836 547.459 52.7992 547.69C53.608 548.616 55.5722 552.085 55.6878 552.664C55.8033 553.242 55.8033 553.242 55.1101 552.432C54.5323 551.738 54.4168 551.623 54.4168 552.085C54.4168 552.548 54.1857 552.779 53.8391 553.011C53.4924 553.242 53.0303 553.936 52.6836 554.399C52.337 554.861 51.9904 555.208 51.9904 555.208C51.7593 554.977 52.7992 553.242 53.2614 552.895C53.608 552.548 53.7235 552.317 53.7235 551.507C53.7235 549.772 51.7593 547.228 50.8349 547.806C50.7194 547.922 50.6038 548.269 50.7194 549.078C50.8349 549.772 50.7194 550.235 50.6038 550.351C50.4883 550.466 49.6795 550.466 48.9862 550.466C47.4841 550.466 46.9064 550.698 45.982 551.623C45.6354 551.97 45.0577 552.085 45.0577 551.738C45.0577 551.391 42.8623 550.119 41.938 549.772C41.2447 549.541 41.1291 549.541 40.5514 549.888C40.2048 550.119 39.8582 550.466 39.7426 550.813C39.6271 551.045 39.2804 551.97 39.0493 552.779C38.5872 554.167 38.4716 554.167 38.8182 554.514C39.2804 554.977 39.1649 555.093 38.125 555.208C37.5087 555.285 37.1236 556.056 36.9695 557.521C36.854 558.909 37.0851 559.256 38.4716 559.025C39.0493 558.909 39.9737 558.678 40.5514 558.331C41.1291 557.984 42.169 557.637 42.9779 557.406C44.2489 557.059 44.4799 556.943 44.3644 556.596C44.3644 556.249 44.4799 556.134 45.2888 556.134C46.0976 556.134 46.9064 555.671 47.9463 555.208C49.5639 554.399 49.9106 554.283 49.6795 554.746C49.4484 555.093 47.253 556.481 46.9064 556.481C46.5598 556.481 45.1732 557.059 45.1732 557.29C45.1732 557.637 45.7509 557.753 46.9064 557.521C47.8307 557.29 48.0618 557.29 48.524 557.637L49.1017 557.984H48.4085C43.5556 557.984 43.209 558.1 40.4359 559.603C40.0892 559.835 39.5115 560.066 39.396 560.066C39.1649 560.182 39.0493 560.413 39.0493 561.223C39.0493 562.032 39.1649 562.495 39.1649 562.726V563.189C39.2804 563.189 41.0136 562.61 41.0136 562.61C41.938 562.263 43.5556 561.917 44.5955 561.685C45.982 561.454 46.6753 561.223 47.253 560.876C48.1774 560.182 48.6396 560.297 47.8307 561.107C47.3686 561.57 46.7908 561.801 45.7509 562.032C44.9421 562.263 43.209 562.726 41.8224 563.073C39.396 563.767 39.2804 563.767 39.1649 564.345C39.0493 564.924 38.9338 566.659 39.0493 566.659C39.2804 566.659 41.1291 566.08 41.8224 565.733C42.5157 565.386 42.7468 565.386 43.209 565.618C43.6711 565.849 46.0976 566.427 46.5598 566.427C47.0219 566.427 46.9064 566.08 47.1375 565.733C47.3686 565.386 47.7152 565.039 47.8307 565.039C48.1774 565.039 48.1774 565.618 47.9463 565.733C47.4841 565.965 47.7152 566.196 48.2929 566.08C48.6396 565.965 48.7551 565.965 48.6396 566.196C48.4085 566.659 47.3686 567.005 46.2131 567.121C45.2888 567.237 44.8266 567.352 44.2489 567.931C43.6711 568.393 43.5556 568.625 43.7867 568.625C44.0178 568.625 44.1333 568.74 44.0178 568.856C43.7867 569.203 42.9779 569.087 42.8623 568.74C42.7468 568.278 42.169 568.393 39.7426 568.856C36.0452 569.666 35.1208 569.897 33.9654 570.591C32.6944 571.285 32.3477 571.401 33.041 570.822C33.2721 570.591 33.5032 570.36 33.5032 570.244C33.5032 569.897 30.8457 570.244 29.6902 570.707C28.7658 571.169 28.4192 571.285 28.4192 571.516C28.4192 571.748 28.1881 571.863 27.8415 572.21C27.3793 572.673 27.3793 572.788 27.4949 573.251C27.4949 573.598 27.7259 574.639 27.8415 575.564C28.1881 578.456 28.4192 580.769 28.6503 581C28.6503 581.232 28.8814 581.232 29.1125 581C29.1125 580.769 29.5747 580.653 29.9213 580.653C30.499 580.653 34.0809 578.918 34.4275 578.571C34.5431 578.456 35.0053 577.762 35.3519 577.068C36.2763 575.564 37.7783 573.482 37.8939 573.598C38.0094 573.714 37.8939 573.945 37.7783 574.292C37.6628 574.639 37.5473 575.102 37.4317 575.333C37.3162 575.68 37.0851 576.143 36.7384 576.49C36.0452 577.184 35.9296 577.877 36.3918 578.109C36.7384 578.34 38.4716 578.224 39.6271 577.993C40.667 577.762 41.0136 577.762 40.7825 578.224C40.667 578.34 40.667 578.571 40.5514 578.687C40.5514 578.803 39.5115 579.034 38.2405 579.15C36.9695 579.265 35.6985 579.497 35.583 579.612C34.8897 580.075 34.5431 580.769 34.5431 582.157C34.5431 583.545 34.312 583.776 34.0809 583.082C34.0039 582.851 33.8883 582.851 33.7343 583.082C33.3876 583.66 32.9255 585.28 33.1566 585.28C33.3876 585.28 33.6187 584.933 33.9654 584.586C34.6586 583.892 35.2364 583.66 35.4674 584.123C35.8141 584.701 36.9695 584.007 38.125 582.388C38.3561 582.157 38.5872 581.81 38.8182 581.81C39.0493 581.81 39.0493 582.041 38.5872 582.504C38.125 583.082 38.125 583.314 38.3561 583.776C38.5872 584.239 38.7027 584.239 38.9338 584.007C39.0493 583.892 39.2804 583.545 39.396 583.313C39.6271 582.851 39.9737 582.62 39.9737 583.082C39.9737 583.545 40.3203 583.313 40.4359 582.966C40.5514 582.735 40.4359 582.504 40.2048 582.273C39.6271 581.81 39.6271 581.463 40.2048 580.769C40.7825 580.075 42.5157 579.15 43.209 579.15C43.9022 579.15 43.9022 578.918 44.3644 578.34C44.9421 577.531 45.8665 576.952 46.4442 576.952C47.0219 576.952 46.2131 577.415 45.6354 578.109C45.0577 578.687 44.5955 579.381 44.5955 579.381C44.5955 579.381 43.7867 579.844 42.8623 580.075C41.938 580.306 41.1291 580.653 41.0136 580.769C40.8981 580.885 40.8981 581.347 41.0136 581.926C41.2447 582.735 41.2447 582.966 40.8981 583.313C40.667 583.66 40.3203 583.776 39.9737 583.776C39.5885 583.776 39.4345 583.969 39.5115 584.354C39.6271 584.933 39.5115 585.164 39.0493 584.701C38.9338 584.586 38.7027 584.817 38.4716 585.395C38.2405 585.974 38.0094 586.321 37.7783 586.321C37.5473 586.321 35.1208 587.709 34.5431 588.287L35.0053 588.981C35.0053 588.981 36.0452 590.022 36.5074 590.484C37.3162 591.41 37.4317 591.41 38.4716 591.41C39.5115 591.41 40.8981 591.757 40.8981 592.104C40.8981 592.451 41.3602 592.335 41.8224 591.872C42.5157 591.178 43.6711 591.294 47.4841 592.219C48.0618 592.335 49.4484 592.566 50.3727 592.566C51.4126 592.682 52.5681 592.798 53.1458 593.145C54.6479 593.723 57.9987 594.07 58.923 593.838C59.2697 593.723 60.3096 593.607 61.2339 593.607C62.6205 593.607 62.8516 593.491 63.4293 593.145L64.007 592.682L63.6604 591.872C63.1982 590.831 63.3138 590.369 64.1226 590.484C64.5847 590.484 64.7003 590.484 65.1625 589.675C65.3936 589.212 65.7402 588.749 65.9713 588.634C66.2024 588.518 67.2423 588.634 68.2822 588.634C70.5931 588.865 71.9796 589.443 74.0594 591.063C76.4859 593.029 78.7968 595.342 78.6812 595.689C78.6812 595.92 78.219 596.267 77.7569 596.499C77.2947 596.73 76.8325 597.077 76.8325 597.308C76.8325 597.655 80.4144 601.241 80.761 601.241C81.1077 601.241 81.2232 601.009 81.5698 600.662C81.9165 600.315 82.1476 600.084 82.2631 600.084C82.3787 600.084 82.8408 600.431 83.303 600.778C83.7652 601.125 84.2274 601.472 84.3429 601.356C84.4585 601.241 84.574 600.894 84.574 600.431C84.574 599.968 84.8051 599.506 84.9206 599.39C85.1517 599.159 87.6937 599.737 89.0803 600.315C89.658 600.547 90.3512 600.894 90.5823 600.894C90.8134 600.894 90.8134 600.662 90.5823 600.2C89.8891 598.812 90.929 598.118 93.1243 598.581C94.5109 598.812 95.5508 599.506 96.3596 600.662C97.1684 601.819 98.6705 604.826 99.0171 605.983C99.2482 606.792 99.3637 606.908 100.057 606.792C100.75 606.792 100.75 606.677 100.866 606.098C100.866 605.52 100.866 605.404 100.288 605.173L99.5948 604.826H100.404C101.097 604.826 101.212 604.71 101.675 603.901C101.906 603.323 102.252 602.976 102.483 602.976C102.83 603.091 102.946 603.323 103.292 605.173C103.639 606.677 103.292 607.024 101.675 607.255C100.904 607.332 100.558 607.563 100.635 607.949C100.635 608.759 100.404 608.759 99.9415 607.949C99.5948 607.371 99.3637 607.255 98.4394 607.486C98.0928 607.602 97.9772 607.718 97.9772 608.527C97.9772 609.337 97.9772 609.452 98.9016 609.684C99.4793 609.915 100.173 610.378 100.635 610.725C101.328 611.419 101.328 611.534 101.212 611.997C100.981 612.46 101.212 612.575 101.559 613.154C102.252 613.963 102.599 613.963 102.83 613.154C103.061 612.46 102.83 611.766 101.906 611.187C100.75 610.493 101.212 609.106 102.483 609.106C103.754 609.106 103.292 609.221 103.523 609.799C103.754 610.378 103.754 610.378 104.217 610.262C104.91 610.031 107.799 610.146 108.492 610.493C108.838 610.609 109.185 610.956 109.416 611.187L109.878 611.65H108.03C106.99 611.419 105.603 611.303 104.91 611.303C103.754 611.187 103.639 611.187 103.523 611.65C103.523 611.881 103.523 612.113 103.523 612.228C103.523 612.228 104.332 612.228 105.257 612.228C107.799 612.228 111.727 611.766 113.691 610.956C114.962 610.378 115.656 610.262 116.811 610.262C117.966 610.262 118.429 610.378 119.815 611.072C120.894 611.611 121.51 612.421 121.664 613.501C121.664 613.963 121.895 614.542 122.126 614.773C122.357 615.081 123.012 615.197 124.09 615.12C125.246 615.12 126.055 615.12 126.748 615.351C128.134 615.698 128.828 615.698 129.405 615.351C129.868 615.004 129.983 615.004 130.561 615.351C131.254 615.698 132.063 615.582 132.525 614.773C132.525 614.542 132.987 614.31 133.334 614.195C133.796 614.195 133.796 613.848 133.796 613.385C133.796 612.575 133.796 612.46 134.374 613.038C134.72 613.385 134.72 613.501 134.374 614.079C134.143 614.426 134.027 614.773 134.027 614.773C134.027 614.773 134.374 614.773 134.72 615.004C135.645 615.351 137.147 615.004 138.071 614.079C138.071 614.079 138.302 613.848 138.302 613.732L139.227 613.038C139.227 613.038 139.689 613.269 140.267 613.385C140.844 613.501 141.538 613.616 141.884 613.732C142.269 613.732 142.462 613.578 142.462 613.269C142.462 612.922 142.462 612.691 143.04 612.575C143.386 612.575 144.08 612.344 144.773 612.575C145.466 612.575 145.697 612.46 145.466 612.228C145.004 611.65 145.119 611.072 145.813 610.956C146.159 610.84 146.506 610.609 146.737 610.378C147.199 609.799 149.048 609.799 150.203 610.378C151.243 610.84 151.474 610.725 152.168 609.452C152.514 608.759 152.63 608.643 153.439 608.643C154.248 608.643 155.287 608.18 155.981 607.139L156.558 606.33H156.096C155.403 605.983 155.634 605.636 156.443 605.636C158.407 605.636 161.065 604.132 160.256 603.554C159.909 603.323 159.332 601.472 159.332 600.662C159.332 599.853 159.563 599.853 159.794 599.39C160.14 598.696 160.603 598.349 161.989 597.54C162.913 596.961 165.224 595.342 166.957 593.954C168.691 592.566 170.655 591.178 171.233 590.831C172.619 590.022 174.352 588.171 174.93 587.015C175.508 585.858 175.392 585.511 175.508 584.817C175.623 583.776 175.854 583.198 176.432 582.273C177.703 580.422 180.13 578.109 181.285 577.646C183.365 576.837 189.72 575.564 192.031 575.449H194.342C194.342 575.333 194.688 574.639 194.688 574.639C194.919 573.945 195.035 573.945 195.728 574.061C196.652 574.176 197.808 573.945 197.808 573.714C197.808 573.482 197.577 573.135 197.461 572.673C196.999 571.863 197.115 571.516 197.577 571.632C197.808 571.709 197.808 571.439 197.577 570.822C197.461 570.475 197.23 569.897 197.23 569.666C197.23 569.087 196.884 568.972 196.306 569.55C195.959 569.781 195.381 570.128 195.035 570.36C194.11 570.822 192.955 571.748 192.955 572.095C192.955 572.441 192.608 572.441 192.262 572.557C191.8 572.673 191.453 573.02 191.106 573.598C190.644 574.408 190.298 574.639 188.911 574.639C187.524 574.639 188.102 574.639 188.218 574.292C188.333 574.176 188.795 573.945 189.142 573.829C189.489 573.714 190.066 573.251 190.413 572.904C190.76 572.557 191.337 572.095 191.568 571.863C191.8 571.632 192.031 571.401 192.031 571.285C192.031 571.169 192.262 570.707 192.493 570.244C192.955 569.55 193.071 569.434 193.995 569.434C194.919 569.434 195.844 569.319 195.844 569.087C195.844 568.856 195.035 568.509 192.608 567.121C191.607 566.581 191.106 566.042 191.106 565.502C191.106 564.808 191.222 564.692 191.8 564.345C192.724 563.767 193.764 561.917 193.648 561.223C193.533 560.529 193.879 560.297 194.457 560.644C194.804 560.876 195.035 560.76 195.613 560.182C196.19 559.603 196.306 559.372 196.306 558.447V557.29L198.386 555.324L200.465 553.358L200.119 552.779C199.426 551.623 199.888 549.888 201.043 549.425C201.621 549.194 201.621 549.078 201.505 548.269C201.428 547.652 201.197 547.382 200.812 547.459C200.234 547.459 200.119 547.459 199.888 546.418C199.657 545.146 199.657 545.03 200.697 543.642C201.043 543.18 201.505 542.254 201.852 541.329C202.892 538.553 203.932 536.587 204.856 535.546C205.318 534.968 205.665 534.39 205.665 534.158C205.665 533.927 206.474 532.886 207.745 531.498C209.593 529.532 211.096 527.797 211.673 527.103C211.904 527.103 212.135 527.219 212.135 527.219L212.482 525.252H212.598C213.175 524.327 213.406 520.51 213.291 514.034V506.863C213.175 506.863 214.793 503.624 214.793 503.624C216.873 499.46 216.873 499.229 216.295 498.304C215.717 497.379 215.833 497.147 218.49 494.256C220.801 491.827 222.419 490.439 228.196 486.854C234.551 482.805 238.942 480.377 246.337 476.676C256.505 471.702 257.429 471.471 267.135 470.314C270.023 469.967 272.681 469.62 273.028 469.62C273.49 469.505 273.952 469.736 274.645 470.314C276.378 471.818 278.574 472.743 280.769 472.859H282.733C282.733 472.974 281.925 471.702 281.925 471.702C281 470.199 280.769 467.538 281.578 466.382C282.618 464.878 283.311 466.497 282.733 468.926C282.387 470.661 282.502 471.587 283.311 472.049C284.004 472.512 285.275 472.28 286.2 471.355C286.777 470.893 287.355 470.43 287.471 470.43C288.048 470.43 288.626 469.158 288.626 468.232C288.626 467.307 288.857 467.076 289.088 466.844C289.319 466.613 289.551 466.035 289.551 465.688C289.551 464.994 289.435 464.994 288.857 465.11C288.28 465.341 288.28 465.225 288.742 464.763C289.204 464.3 289.204 464.184 288.742 463.375C288.395 462.796 288.164 462.565 287.702 462.681C287.24 462.796 287.124 462.681 287.124 462.334C287.124 461.987 286.777 461.524 286.315 461.177C285.622 460.599 285.391 460.599 285.16 460.946C284.698 461.524 284.235 461.524 284.467 460.946C284.698 460.368 284.12 459.674 283.311 459.674C282.502 459.674 282.618 459.558 282.502 459.327C282.156 458.748 281.809 458.98 281.462 460.021C281 461.524 280.538 461.64 280.769 460.136C280.885 459.095 280.885 458.864 280.422 458.517C279.614 457.939 279.151 458.054 278.689 459.327C278.227 460.599 277.534 460.599 277.881 459.327L278.112 458.517L276.378 458.748C275.454 458.864 274.183 459.211 273.49 459.442C272.103 459.905 271.41 459.789 271.41 459.095C271.41 458.401 272.45 457.823 274.992 457.707L277.303 457.476L276.032 456.435C274.992 455.51 274.761 455.047 274.299 453.428C273.952 452.387 273.605 449.958 273.605 448.108C273.374 444.985 273.49 444.522 274.183 441.862C275.454 437.351 276.609 435.038 277.649 435.038C278.689 435.038 278.574 434.576 279.267 433.997C280.538 433.072 285.275 430.99 287.24 430.527C287.933 430.412 288.395 429.949 289.204 428.793C290.128 427.289 290.359 427.173 292.208 426.595L294.172 426.017L295.559 423.704C296.368 422.431 297.176 420.812 297.408 420.234C297.639 419.655 298.447 418.036 299.256 416.764C300.065 415.492 301.221 412.947 301.914 411.328C302.607 409.593 303.416 407.743 303.878 407.164C304.34 406.586 304.571 405.776 304.571 405.314C304.456 404.273 305.265 402.769 306.189 402.191C306.536 401.96 307.691 401.266 308.731 400.572C310.349 399.646 310.811 399.415 311.62 399.646C312.544 399.878 312.544 399.762 312.082 399.299C311.504 398.721 311.388 396.871 311.851 396.061C311.966 395.714 312.544 395.251 313.122 394.904C313.93 394.442 314.046 394.21 313.93 393.632C313.815 393.054 314.046 392.822 314.855 392.244C315.433 391.897 317.05 390.625 318.437 389.353C320.748 387.387 320.979 387.04 320.863 386.23C320.748 384.958 321.441 382.413 322.365 381.025C323.29 379.637 323.752 379.175 324.561 378.365C325.369 377.555 325.369 377.44 325.6 377.093L327.218 375.705C326.756 375.242 326.294 375.011 325.832 374.895C326.872 375.474 327.103 375.821 327.334 374.664Z" fill="#B2B2B2"/>
</svg>
